<?xml version="1.0" encoding="UTF-8"?>
<svg version="1.1" viewBox="0 0 2048 1519" width="400" height="200" xmlns="http://www.w3.org/2000/svg">
<path transform="translate(0)" d="m0 0h2048v1519h-2048z" fill="#FEFEFE"/>
<path transform="translate(1031,448)" d="m0 0 5 1 1 3v12l1 3 7 2v5l-4 1-2-2-1 3 9 1 4 3v6h7l4-1 3 2 1-5h3l1 3h8l3 6 1 3h-2v2l9-2 2-1-3-2 1-8-1-8-4-2 1-2h9v-2l5-2 1 5 1 7 7 6h3l-1-6 6-2h5l1 1-1 15-3 5 1 7-2 2-1-3h-2l2 7 2 3v8l4-4v-4l3-1 3-7 2-1h6l2 7-2 3-3 1v8l-4 7-1 5-4 1-1-3h-5l-2-9-4-2-1 10-3 1 1 5-1 4 1 3 6-3 5-2 2-3h2l3 3v-3h2l1 2 6 1 5 1 1-3 3 1v2l3 1-1 9-4 4h-3v2l6 2 4 2 2-4 5-3 3-3 2-7 1-1v-7l3-3 3 2 2 7h2v9l10-4 1-2h3l-1 4-2 2-2 7-5 3-3 2 3 6 3 1v7l-11 7-10 4-7 6-8-1-4 3h-5v3h5l4-2 2 1-1 7-1 3h3l2-6h5l3-2 1 4v1h6l4-2 3 1 2-4 3 1-1 5-5 11-2 2 4 3 3-6 10-4 4-3h3l-2 6-7 12-5 2h-7l-3 5h-2l3 9h2l2-4 4-1 1 4v2h2l1 4-2 3-12 1h-7l-5 2-4 1-3-2-1 4h-3l1-5-4-1-4-3 1-6-3 1-5 8-2 5-10-1-5 1-1 1h-6l-5-3-1 3-9-1-5 4-7 8-7 6-9 5-5 27-1 10-1 38-1 1h-9v-42l-2-13-4-10-6-9-8-4-16-7-11-5-20-6-14-5-12-2-15-4-3-2v-2l-1 1h-6l-12-3-4-2-7 1-6-2-2-5h3 5l-1-1h-7l-4 1-3-3h-8l1-5 6 3-3-3-9-4 1-8 1-2h5l9 3 3-4h2v-2l-3-1-1-4-6-1-1-3 2-3 1-9 1-2h8l6-1v-2l-3-1 1-4 4-4 7 2 3-2 9-1-1-4-1-5h-3l-1 5-4-2-2-2-6 4-4 2-1 3-4-2-4-5 1-5 4-6-2-1v-3l11 1 1 2 5 1 1 4h6l3-3 6-1 3 5 2-2-4-9 5-1 3 4 4-1v5l10-3-2-1-5-1-3-3 3-7-7 3h-7l-6-2v2l-4-1 3-5v-3l-5-3-1-4v-9l4 1 6 8h3l2-5 2-4 7 3h3l4 1-3-9 4 2 4 1-1-6 4 1 3 7 3 2h6v-3l-2-1v-3l4 1 1 5 9-1 1-4 3 1v2l7-2-1-4-2-2v-5l3-4-4-2-4-1-5 1 1-7 1-9-3-8v-8l3-1-2-4 3-2 6 3 2 2 3 8 4 1 1-4-2-4 5 1v4l4-1 2-11 3-4h4l1 2 8 1 1 23 1 1 1-13v-3l3-2z" fill="#5F925D"/>
<path transform="translate(1408,802)" d="m0 0h46l14 4 10 7 7 10 3 9 1 12-3 12-6 10-7 7h-2l3 10-3 6-5 4-6 1-5-3-6-7-1-2-25-1v31l-3 5-6 5h-6l-6-4-2-3-1-8v-75l1-23 4-5z" fill="#73C777"/>
<path transform="translate(1e3 802)" d="m0 0h46l12 3 10 6 6 7 5 10 1 4v18l-4 10-6 9-6 5 1 5 1 6-6 7-4 2-7-1-5-5-4-6-25-1v32l-5 7-4 2h-6l-6-4-2-4v-105l4-5z" fill="#73C777"/>
<path transform="translate(692,802)" d="m0 0h6l8 7 9 10 11 14 27 33 10 13 2 1v-37l5-6 2-1h8l5 4 3 5v68l-4 6-5 3h-6l-8-7-13-15-11-14-11-13-9-11-12-14-1-2-1 63-2 7-5 5-2 1h-6l-6-4-2-4v-105l5-5z" fill="#73C777"/>
<path transform="translate(1286,801)" d="m0 0h16l9 3 4 5 1 2v6l-7 8-6 1h-9v24h29l13 1 5 3 3 6-1 7-4 5-2 1-43 1v24h39l10 1 5 4 3 9-3 6-6 4-20 1h-18l-26-1-6-4-2-3v-106l5-5 3-2z" fill="#73C777"/>
<path transform="translate(466,801)" d="m0 0h8l9 2 5 4 2 4v6l-6 7-2 1h-15v25l43 1 6 5 1 3v7l-5 6-2 1h-43v25h38l12 1 5 4 3 6-1 5-6 7-2 1h-64l-6-4-2-3v-107l6-5 2-1z" fill="#73C777"/>
<path transform="translate(847,802)" d="m0 0h6l7 6 2 7v52l1 14 4 10 5 5 8 4 5 1h13l9-4 6-5 4-8 2-9 1-31 3-5 8-4 7 3 4 5 2 5-1 32-3 12-7 13-9 10-10 6-12 4-5 1h-12l-15-4-11-6-10-9-6-11-4-13-1-15v-56l3-6z" fill="#73C777"/>
<path transform="translate(1166,799)" d="m0 0h14l12 3 12 6 8 8 3 8-4 7-5 3-6-1-13-8-10-3-11 1-8 4-3 6 1 6 6 5 27 12 12 6 9 7 6 8 3 8v13l-4 10-9 10-8 5-10 3h-15l-10-5-4-5v-7l4-6 4-2 18 1 7-4 3-6-1-7-5-5-12-6-21-8-13-7-7-7-4-8-1-5v-9l4-11 4-6 9-8 13-5z" fill="#73C777"/>
<path transform="translate(1533,802)" d="m0 0h8l6 5 14 22 11 17v2h3l2-6 7-9 4-2 9 1 5 5 1 2-1 9-11 18-5 8-1 39-4 6-5 3-8-1-5-5-1-3-1-39-14-23-10-15-11-18v-10z" fill="#73C777"/>
<path transform="translate(763,968)" d="m0 0h24l8 5 4 6v12l-4 8-5 5-11 4-8 1-2 6-2 7h-13l-1-3 8-45z" fill="#73C777"/>
<path transform="translate(973,967)" d="m0 0h8l10 3 6 3 1 3-6 8-4 1-7-3h-8l1 3 15 8 4 5 1 2v9l-4 7-6 5-5 2h-12l-9-3-6-4v-5l5-6 4-1 6 3 11 1-1-4-10-4-7-6-3-9 3-9 5-6z" fill="#73C777"/>
<path transform="translate(1056,981)" d="m0 0h14l6 4 4 5 1 3-1 13-4 10-5 5-4 2-11 1-2 7-1 5h-13l-1-5 7-40 3-7z" fill="#73C777"/>
<path transform="translate(1098,981)" d="m0 0h14l7 4 5 8-1 12-4 11-7 6-13 2-2 5-2 7h-12l-1-1 1-11 6-34 2-6z" fill="#73C777"/>
<path transform="translate(1159,982)" d="m0 0h13l1 4-4 22h5l4-23 2-3h12l1 4-6 33-5 10-7 6-6 2-11-1-6-4-1-4 5-6 9 1 4 1v-2l-6-1-6-4-2-3v-15l3-16z" fill="#73C777"/>
<path transform="translate(1423,825)" d="m0 0h31l8 5 3 7v10l-4 8-6 4-3 1h-29z" fill="#FEFEFE"/>
<path transform="translate(1017,825)" d="m0 0h31l7 4 4 8v10l-4 8-8 5h-30z" fill="#FEFEFE"/>
<path transform="translate(1236,967)" d="m0 0 12 2 7 4-1 5-6 6-7-2h-6l-3 3-3 10-1 11 3 3 6-1 5-2 4 1 3 6v5l-10 5h-13l-8-4-5-6-1-3v-11l4-18 4-6 6-5 4-2z" fill="#73C777"/>
<path transform="translate(1268,981)" d="m0 0h13l6 4 4 5 1 4v8l-3 10-4 6-5 4-3 1h-12l-5-3-4-5-2-5 1-11 4-11 5-5z" fill="#73C777"/>
<path transform="translate(578,863)" d="m0 0h48l5 5 2 4-1 6-4 5-7 3h-38l-8-4-3-4v-9l4-5z" fill="#72C676"/>
<path transform="translate(844,980)" d="m0 0 10 2 7 6 1 2v10l-3 16-3 5-4 2h-16l-6-3-4-5-1-8 4-7 5-3-2-5-2-3 1-5 7-3z" fill="#76C87A"/>
<path transform="translate(880,981)" d="m0 0h14l6 3 4 5 2 7-5 25-1 1h-13l1-11 2-16-5-1-1 9-4 18-1 1h-13l2-16 4-20 4-4z" fill="#73C777"/>
<path transform="translate(1006,982)" d="m0 0h12l1 5-4 24 5-2 4-21 2-6h13l1 4-6 31-4 4-6 2h-13l-5-3-4-5-1-2v-12l3-16z" fill="#73C777"/>
<path transform="translate(1117,501)" d="m0 0 2 4-2 2-1-3h-2l2 7 2 3v8l4-4v-4l3-1 3-7 2-1h6l2 7-2 3-3 1v8l-4 7-1 5-4 1-1-3h-5l-2-9-4-2-1 10-3 1 1 5-1 4v4h-2v-5l-4-1v2l-8 1h-6v3l-6-1 1-12-1-4 1-5-1-5 4-1 1-3h2v-2h4l-1 5 3 7v3l-4 1 2 5 3-3 2-5 5 1 4-1-1-6-2-2v-5l2-2h5l1-8z" fill="#76C579"/>
<path transform="translate(1031,448)" d="m0 0 5 1 1 3v12l1 3 7 2v5l-4 1-2-2-1 3 9 1 4 3v6h7l4-1 3 2 1-5h3l1 3h8l3 6 1 3h-2v2l2 1-2 2-12 1-3 8-5 2-4-2-2 3h-3l1-6h-2v-10l3-2-1-4-2-2-1-5-5 1h-3l-3 3-5-1-1-3h-3l-1 4-2-1 2-7v-10l3-2z" fill="#7CC880"/>
<path transform="translate(1e3 647)" d="m0 0 5 1 1 3 5-2 12 3v2l5 2 4 1 1-2 4 2 4 7 1 7 3 6v6 2 5l-4-1-2-4-8-7-7-6v-2l-4-2-4-4v-2h-5v3l5 2v2l5 1 2 3-7-1-14-6v-4l-8 1v-6h2l1-7z" fill="#77C67A"/>
<path transform="translate(1136,968)" d="m0 0h13l1 5-6 36 5 2-1 10-2 2h-8l-6-3-3-4v-10l5-30z" fill="#73C777"/>
<path transform="translate(918,973)" d="m0 0h11l1 1v9h5l1 1-1 10-7 3-2 13 6 1v7l-2 4-2 1h-7l-6-3-3-4v-16l5-26z" fill="#73C777"/>
<path transform="translate(809,968)" d="m0 0h13v9l-5 29v4l5 2-1 7-1 3-2 1h-7l-6-3-3-4v-12l6-35z" fill="#73C777"/>
<path transform="translate(1090,575)" d="m0 0 5 3 1 4h2v-3l-2-1 6-3h8l-2 14-5 3h-2l-1 4 1 5v5l-9-1-1-4 1-3-4-4-2 5v7l-2 4h-2l-1-7h-3v-2h-2l-1-5-1-8 2-6 4-1h4 2v-2h3z" fill="#7BC97F"/>
<path transform="translate(969,548)" d="m0 0 5 1 2 3 5-1 2-3 4 2 4 3 4 2v2l-5 3 2 4 7 3h2 4v-2l5 1 3 4v2h3l1 4-4-1 1 2 8 1v4l-5-1-2 1-2-1v-2l-10 2-3-3v-2h-6l-5-5v-2l-6-2-1-2-5-3-2-2-5 2-1-3-3-1-1-5z" fill="#84CD88"/>
<path transform="translate(930,592)" d="m0 0h5l2 6h3l-1 4-2 1 4 1v6l-5 1v2l-5 2 2 4-1 5-5 1-4-2 1-3h2v-2h-3v2l-2 1h-8l-1-5-6-2-2-1-2 2-1-3 6-3h2l2-6 6 1 4 1v-6l5 1 2 1-1-3-3-3 2-2z" fill="#6EBB71"/>
<path transform="translate(1189,610)" d="m0 0h3l-2 6-7 12-5 2h-7l-3 5h-2l3 9h2l2-4 4-1 1 4v2h2l1 4-2 3-12 1-7-1v-7l3-5h2l-2-3v-4l3-1 2 1 1-4 6-12 10-4z" fill="#75C779"/>
<path transform="translate(773,802)" d="m0 0h7l6 5 2 4v6l-4 6-9 3-5-2-5-6v-9l4-5z" fill="#60965F"/>
<path transform="translate(1071,899)" d="m0 0h8l5 4 2 4v7l-4 6-4 2-9-1-5-5-1-2v-7l4-6z" fill="#60965F"/>
<path transform="translate(929,802)" d="m0 0 8 1 5 6 1 2v6l-4 6-6 3-7-1-5-5-1-3v-7l4-6z" fill="#60965F"/>
<path transform="translate(1607,802)" d="m0 0h6l6 4 2 4v8l-5 6-7 2-7-3-4-7 1-8 6-5z" fill="#60955F"/>
<path transform="translate(1138,886)" d="m0 0 8 1 5 5 1 2v8l-5 6-2 1h-9l-5-4-2-4 1-9 5-5z" fill="#60965F"/>
<path transform="translate(1336,802)" d="m0 0 8 1 6 7v8l-5 6-2 1h-9l-5-4-2-4v-7l5-6z" fill="#60955F"/>
<path transform="translate(510,802)" d="m0 0 8 1 5 6 1 2v6l-3 5-8 4-7-2-5-6v-8l4-6z" fill="#60955F"/>
<path transform="translate(1476,899)" d="m0 0h8l5 3 3 6-1 8-5 5-8 1-6-3-3-5v-7l4-6z" fill="#60965F"/>
<path transform="translate(898,553)" d="m0 0 11 1 1 2 5 1 1 4h6l3-3 6-1 3 5 2 1-9 3 1 6 3 1v2l-4-1-3-9h-3l-1 5-4-2-2-2-6 4-4 2-1 3-4-2-4-5 1-5 4-6-2-1z" fill="#70C174"/>
<path transform="translate(1022,653)" d="m0 0 6 1 4 3h3l1-2 4 2 4 7-1 3h-3v2l3 1 4 8-1 5-5-1-5-6-9-7-5-4-1-11z" fill="#FEFEFE"/>
<path transform="translate(920,521)" d="m0 0 4 1 6 8h3l2-2 2 2 3-1v2l4-1 1 4h-4l-1 4 8 4-1 9h2v2l6-1 2 4-5 2h-6v-1l8-2-2-1-5-1-3-3 3-7-7 3h-7l-6-2v2l-4-1 3-5v-3l-5-3-1-4z" fill="#70BF73"/>
<path transform="translate(1177,553)" d="m0 0 2 2v1l1 2 2-1-2 4-6 2 3 7 3 1v7l-11 7-10 3 4-6 7-1v-2l3-3-2-3h3l-3-4-9-4v-2l-5-1 1-3 5 1v-3l13-3z" fill="#75C778"/>
<path transform="translate(1031,448)" d="m0 0 5 1 1 3v12l1 3 7 2v5l-4 1-2-2v4l3 2-2 1-4-1-1 5-2 1-1-3h-3l-1 4-2-1 2-7v-10l3-2z" fill="#6FBD72"/>
<path transform="translate(1089,514)" d="m0 0h4l-1 5 3 7v3l-4 1 1 2-1 10h-4l1 5-6-1 1-12-1-4 1-5-1-5 4-1 1-3h2z" fill="#88CF8C"/>
<path transform="translate(921,599)" d="m0 0 4 1-1 4-2 3-1 12-2 2h-6l-1-5-6-2-2-1-2 2-1-3 6-3h2l2-6 6 1 4 1z" fill="#FDFDFD"/>
<path transform="translate(1099,468)" d="m0 0 1 4 1 7 7 6h3l-1-6 6-2h5l1 1-1 15h-3v-7l-2-1-7 4v1h-5l-5-3v4h-4l1-8h4l-3-9z" fill="#85CD89"/>
<path transform="translate(1098,467)" d="m0 0 1 4-1 3 2 9h-4l-1 9-3 1-4-2 1-8-1-8-4-2 1-2h9v-2z" fill="#5F925D"/>
<path transform="translate(937,603)" d="m0 0 4 1v6l-5 1v2l-5 2 2 4-1 5-5 1-4-2 1-3h2l-2-3v-3l3-2-1-1-3-1 1-4 7-1 1 4h3l1-5z" fill="#73C777"/>
<path transform="translate(1302,1007)" d="m0 0 7 2 2 3-1 7-4 3-4 1-5-3-1-1v-7l3-4z" fill="#72C676"/>
<path transform="translate(1122,538)" d="m0 0h2l3 3v-3h2l1 2 6 1 5 1 1-3 3 1v2l3 1-1 9-4 4h-3l1-5 2-3-1-4-2-1v2h-3v-2l-7 2-8-1h-2l-3 1 1 4-3 1-1-4-2-2 8-3z" fill="#72C576"/>
<path transform="translate(1e3 653)" d="m0 0 6 5 5 3 1 4 5 2v2l5 1 2 3-7-1-14-6v-4l-8 1v-6h2v-2z" fill="#83CD87"/>
<path transform="translate(946,641)" d="m0 0h4v2l8 4v2l4 1 1-3 5 2-1 3 2 1v2l-13-1-15-4v-1h5z" fill="#70BF73"/>
<path transform="translate(598,864)" d="m0 0h27l6 4 2 4-1 6-3 4-3-1h2l1-6-5-6-5-1-15-1-6-2z" fill="#60945E"/>
<path transform="translate(1136,594)" d="m0 0h6l-2 3h-5v3h5l4-2 2 1-1 7-1 4h-2l-1-4-1-1-1-2-3-1-2 4-5 1h-8v-3h9v-2l3-3h-4l1-3z" fill="#78C97C"/>
<path transform="translate(1166,534)" d="m0 0 3 2 2 7h2v10h-3v-3h2l-2-3-3 5-7 1 1-7 2-2v-7z" fill="#72C576"/>
<path transform="translate(1079,656)" d="m0 0h3l-1 6-7 8-9 4h-2l2-5 7-8 2-2h4z" fill="#FEFEFE"/>
<path transform="translate(1056,652)" d="m0 0 5 1 2 9v6h-2l-1 10h-3l-1-11z" fill="#73C777"/>
<path transform="translate(1189,610)" d="m0 0h3l-2 6-6 10h-2v-2h-5v-3h-2v-4l10-4z" fill="#64A164"/>
<path transform="translate(1012,457)" d="m0 0h4l1 2 8 1 1 25-2-1v-19h-2l-2-2-8-2 1 3-2 1-3 9-3 1-4-1-3-4v-2l5 1v4l4-1 2-11z" fill="#72C576"/>
<path transform="translate(1272,994)" d="m0 0h5l1 5-3 10-2 2h-4l-1-5 3-11z" fill="#FEFEFE"/>
<path transform="translate(1057,586)" d="m0 0h2l1 2 5 1 1 4-2 7h-4v-2l-3-1-2-7z" fill="#9CD79F"/>
<path transform="translate(1116,477)" d="m0 0h5l1 1-1 15h-3v-7l-2-1-6 2 1-6v-3z" fill="#70C073"/>
<path transform="translate(974,648)" d="m0 0 4 1v5h2l2-4 4 2v3l5 1-2 3-11-2-7-2v-4z" fill="#73C777"/>
<path transform="translate(969,548)" d="m0 0 5 1 2 3 5-1 4-1v3h-3l-1 4-5 1-6-4-3 3-2-4z" fill="#FEFEFE"/>
<path transform="translate(1104,994)" d="m0 0 5 1-1 10-2 5-4 1-1-1 1-12z" fill="#FEFEFE"/>
<path transform="translate(929,557)" d="m0 0 4 2 1 3 2 1-9 3 1 6 3 1v2l-4-1-3-9-3-1-3-2 5-2 2-2z" fill="#71C275"/>
<path transform="translate(1061,994)" d="m0 0 5 1v7l-2 7-1 1h-5l1-10z" fill="#FEFEFE"/>
<path transform="translate(1130,505)" d="m0 0h6l2 7-2 3-5 1-4-2 1-8z" fill="#629A61"/>
<path transform="translate(1174,618)" d="m0 0 1 3h2v3h5l1 4-5 2h-7l-3 5-3-1 3-1 1-4 4-8z" fill="#72C676"/>
<path transform="translate(775,983)" d="m0 0h7l2 2-1 5-3 3-5 1-2-1 1-9z" fill="#FEFEFE"/>
<path transform="translate(1122,538)" d="m0 0h2l3 3v-3h2l1 2 6 1 1 2-7 2-8-1h-2l-3 1 1 4-3 1-1-4-2-2 8-3z" fill="#70C073"/>
<path transform="translate(1063,489)" d="m0 0 5 1 3-1 2 1v2l4-2 1 5-4 3-6-2-1 2-2-1v-5l-2-1z" fill="#5E915C"/>
<path transform="translate(930,592)" d="m0 0h5l2 6-3 4-4-1-6-6 2-2z" fill="#83CC87"/>
<path transform="translate(952,578)" d="m0 0 4 1 3 2 1 3 2 1 2 4 6 3-4 2-3-2v-2l-4-1-2-1v2l-3-1-1-3h3l-1-5-3-1z" fill="#8DD090"/>
<path transform="translate(1150,646)" d="m0 0h2l4 8-2 2-4-1-2-1-1 4h-3l1-5-3-1 5-2 3-1z" fill="#71C274"/>
<path transform="translate(1077,583)" d="m0 0h7l1 1-1 9-6 2v-5h-2z" fill="#FEFEFE"/>
<path transform="translate(1102,575)" d="m0 0h8l-1 4h-2v7l-2 2 1-6-8 4-2-1 3-5z" fill="#FEFEFE"/>
<path transform="translate(1015,505)" d="m0 0 5 1 1 4-4 6-6 2-5 1 1-4 3 1v-2l6-1z" fill="#80CC84"/>
<path transform="translate(1039,477)" d="m0 0h8l2 2-1 4-6-1-4 4h-4l2-7h5z" fill="#86CD89"/>
<path transform="translate(1105,570)" d="m0 0 5 1 1 1 1-2 5 1-2 4-5 2v-2l-9 1v-2h2z" fill="#83CC87"/>
<path transform="translate(955,513)" d="m0 0 4 1 1 6-3-1v2h-4l-2 9h-5l3-5h2l-3-9 4 2 4 1z" fill="#7FC682"/>
<path transform="translate(1173,601)" d="m0 0 3 1-1 5-2 5-1-3h-11l-1-2 5-2h4 2z" fill="#6FBC71"/>
<path transform="translate(970,546)" d="m0 0 5 2v2l4-1 3 2-3 2-4-1-2-3-5 1-2 5-2 1v-2h-2v-2h-2l1-3 7-2z" fill="#81CA84"/>
<path transform="translate(905,556)" d="m0 0 4 4-3 2-1 5-4 1v-2l-3-1 1-5 5-1z" fill="#5E8F5C"/>
<path transform="translate(1078,581)" d="m0 0h2l1 3-4-1 1 4v2l1 4-1 2 4-1-1 4v-2h-3l-1 5-2-3-1-10 2-6z" fill="#73C777"/>
<path transform="translate(1184,546)" d="m0 0h3l-1 4-2 2-1 5-4 2-1-2-2-1 2-4-2-1 7-3z" fill="#619760"/>
<path transform="translate(920,521)" d="m0 0 4 1 2 6-1 5-4 1-1-4z" fill="#64A064"/>
<path transform="translate(1e3 653)" d="m0 0 7 6 3 4-6-1-7-3 2-5z" fill="#FEFEFE"/>
<path transform="translate(1031,448)" d="m0 0 5 1 1 3v7l-5 2z" fill="#65A265"/>
<path transform="translate(910,602)" d="m0 0h5l-4 2-2 5-6 3h-2l-1 2-2-4-2-1 6-1 4-2 2-2z" fill="#73C777"/>
<path transform="translate(1063,556)" d="m0 0 4 1 1 3-1 3 3 1-1 5-4-1-3-6 3-1-3-2z" fill="#A5DBA8"/>
<path transform="translate(1095,649)" d="m0 0h8l3 6 6 2v1h-6l-5-4-6-2z" fill="#80CB83"/>
<path transform="translate(937,603)" d="m0 0 4 1v6l-5 1v2l-4-1 2-1-1-2h2l1-5z" fill="#A4DAA6"/>
<path transform="translate(1088,533)" d="m0 0 3 1v8l-7 1 1-6z" fill="#FEFEFE"/>
<path transform="translate(947,642)" d="m0 0 5 1 5 4-1 3-9-1z" fill="#FEFEFE"/>
<path transform="translate(927,605)" d="m0 0h4l2 4 2 2-1 1h-5l-2-2h-4l1-4z" fill="#FEFEFE"/>
<path transform="translate(983,548)" d="m0 0 4 2 4 3 4 2v2l-4 1 1-3-6 1-4-1v-2l3-2-3-2z" fill="#74C478"/>
<path transform="translate(1090,483)" d="m0 0h3l2 9-3 1-4-2zm5 0h1v6h-1z" fill="#6FBD72"/>
<path transform="translate(1122,593)" d="m0 0 4 1v3l-6 5h-4l2-5 4-2z" fill="#8AD08D"/>
<path transform="translate(947,542)" d="m0 0 1 4-1 5h2v2l6-1 2 4-5 2h-6v-1l8-2-2-1-5-1-3-3z" fill="#73C777"/>
<path transform="translate(1057,653)" d="m0 0h2l2 9 1 1-1 7-3-1z" fill="#FEFEFE"/>
<path transform="translate(1142,598)" d="m0 0 4 1-1 7-1 4h-2l-1-4-1-1-2-4z" fill="#73C777"/>
<path transform="translate(1136,506)" d="m0 0 2 4-2 5-3-1 2-2-6 2v-5l4-2h2z" fill="#76C87A"/>
<path transform="translate(1168,647)" d="m0 0 10 3-1 2-10 1-2-5z" fill="#649F63"/>
<path transform="translate(1085,471)" d="m0 0h9l-3 1 1 8-3 3-1-8-4-2z" fill="#70C174"/>
<path transform="translate(1171,612)" d="m0 0 1 2-3 5-1 2-5-1-3-3 1-2 4 1v2l3-1 1-4z" fill="#85CE88"/>
<path transform="translate(898,560)" d="m0 0 1 4 2 4-2 4-4-4 1-5z" fill="#73C777"/>
<path transform="translate(1060,559)" d="m0 0 6 1-3 3 1 2-3-1-3 5h-2l1-4z" fill="#6FBD72"/>
<path transform="translate(1009,465)" d="m0 0 1 3-2 6-3 1-4-1-3-4v-2l5 1v4l4-1z" fill="#6EBA71"/>
<path transform="translate(1012,457)" d="m0 0h4l2 4-3 1-3-1 1 3-4 1 1-5z" fill="#71C375"/>
<path transform="translate(924,615)" d="m0 0 5 2 3 3-1 3h-6v-2h2l-3-4z" fill="#FEFEFE"/>
<path transform="translate(1136,594)" d="m0 0h6l-2 3h-5l-1 3-5-1 1-3z" fill="#82CD86"/>
<path transform="translate(915,562)" d="m0 0 9 1-3 1-1 6-4-2z" fill="#65A365"/>
<path transform="translate(1096,598)" d="m0 0 5 1v7l-5-2-2-4z" fill="#FEFEFE"/>
<path transform="translate(891,587)" d="m0 0h5l-4 1 1 3-4 12h5v1h-6l-1-3 2-3 1-9z" fill="#73C777"/>
<path transform="translate(933,550)" d="m0 0 5 1 2 3 2 1-4 2-2-1-1 2-3-7z" fill="#6DB870"/>
<path transform="translate(1026,645)" d="m0 0 5 1 1 4h-7l-1-4z" fill="#A4DAA6"/>
<path transform="translate(946,641)" d="m0 0 4 1-2 1-1 6h6v3l-12-2v-1h5z" fill="#73C777"/>
<path transform="translate(1e3 585)" d="m0 0 3 1v4l5 1-1 3-7-3z" fill="#73C777"/>
<path transform="translate(1078,596)" d="m0 0h3l3 3v8h-1l-1-5-5-1z" fill="#FEFEFE"/>
<path transform="translate(1036,585)" d="m0 0h3l-2 5 3 1-1 2-6-2-2-4h3l2-1z" fill="#7BCA7F"/>
<path transform="translate(985,584)" d="m0 0h3l1 4 4-1 1 5-5-2-4-3z" fill="#FEFEFE"/>
<path transform="translate(982,578)" d="m0 0 4 1 2 1 1 6-1-2h-3l-1 3-2-6z" fill="#77C87B"/>
<path transform="translate(1139,562)" d="m0 0 5 1 3 3-1 2h-3l-1-2-2 4-1-3z" fill="#A9DCAC"/>
<path transform="translate(883,627)" d="m0 0 6 3-1-3h2l3 5-1 2-2-2h-8z" fill="#6CB56E"/>
<path transform="translate(932,593)" d="m0 0h2l2 4-1 4-3 1-2-1z" fill="#FEFEFE"/>
<path transform="translate(1121,573)" d="m0 0h3l-1 6-1 2-3-1-1-4z" fill="#B8E2BA"/>
<path transform="translate(898,553)" d="m0 0 5 1 2 1v5h-6l1-3-2-1z" fill="#6FBE72"/>
<path transform="translate(1165,536)" d="m0 0 1 3 3 1v5h-2v3h-2l-1-3 1-7-2-1z" fill="#5E905C"/>
<path transform="translate(988,654)" d="m0 0 4 1 1 3-4 4-6-1 1-4 5 1 1-2z" fill="#73C777"/>
<path transform="translate(1121,539)" d="m0 0 1 3-3 3h-2l1 4-3 1-1-4-2-2 8-3z" fill="#73C777"/>
<path transform="translate(937,521)" d="m0 0 7 3 2 3h-4v-3l-4 2-3 2v-5z" fill="#72C576"/>
<path transform="translate(1031,455)" d="m0 0h1l1 5 3-1v5l-3-1v4l-2-1zm-1 12m-2 1 2 1-2 2z" fill="#73C777"/>
<path transform="translate(1084,537)" d="m0 0 1 2-1 4 4 1v3l-6-1v-6z" fill="#73C777"/>
<path transform="translate(983,652)" d="m0 0 2 1v4h3v-2l3 1-2 3-5-1-2-1z" fill="#FEFEFE"/>
<path transform="translate(974,648)" d="m0 0 4 1-1 4h-3l-3-3z" fill="#A1D9A4"/>
<path transform="translate(982,635)" d="m0 0 6 1 2 4-6-1-3-3z" fill="#8CD190"/>
<path transform="translate(970,546)" d="m0 0 5 2v2l4-1 3 2-3 2-4-1-2-3-4-2z" fill="#70C074"/>
<path transform="translate(1057,586)" d="m0 0h2l1 3-1 4h-2l-1 2-1-7z" fill="#81C984"/>
<path transform="translate(952,578)" d="m0 0 4 1 3 2v5l-4-3v-2l-3-1z" fill="#ADDEB0"/>
<path transform="translate(1015,578)" d="m0 0h7v4l-5-1-2 1-2-2h2z" fill="#73C777"/>
<path transform="translate(1184,546)" d="m0 0h3l-1 4-4 2h-6l1-2 6-2z" fill="#6EBC71"/>
<path transform="translate(991,467)" d="m0 0 4 8 4 1 2-1-1 3h-7l-2-6z" fill="#73C777"/>
</svg>
