<?xml version="1.0" encoding="UTF-8"?>
<svg version="1.1" viewBox="0 0 2048 994" width="1280" height="1280" xmlns="http://www.w3.org/2000/svg">
<path transform="translate(0)" d="m0 0h2048v994h-2048z" fill="#FEFEFE"/>
<path transform="translate(1008,65)" d="m0 0 4 1 5 8-1 5-2 2 1 10h6l-1 4h-3v5l-3 1 3 3 2-4h2l1-7 4 1 2 4v3l-5 2-2 3h3v2l3 1 1 1 1-2 4 1 4 4-1 7h8l4-2h7l2-5 4 1-1 3-2 1 10 1 4-1 6 9v5h3 7l3-1 1-4-4-1 3-5-1-10-3-7-3-3 1-2 2 1v2h3l1-4 8-4 5-1v15l6 2 5 6 3 3 4-1v-5l-2-2v-3l10-1 4-1 4 3-1 10-7 18 1 10h-6v4l5 8v11l5-2 4-8 7-13 9-2 3 2v3l-5 3v1l5 1-1 5-4 1h-2l-1 13-3 7-3 8h-7l-2-1 1-6-2-1v5l-3-1-1-12-6-1-2 1-1 11-5 4 3 2-1 3-2 1v10l4-2 5-2h6l6-6 5 3 2-4 7 4 10 2 4-5 4 1 3 4v10l-3 7-7 2v2l9 4 5 3 3-6 6-2 7-10 3-8 1-1v-10l5-1 5 9 3 1v12l7-1 11-5 2 2-5 4-2 10-3 3-6 3-3 3 1 5 3 3 6 3-1 7-4 2h-3l2 2-4 3-7 3-16 8-6 4-2 3-6-1h-8l-4 4-7 1 1 4 4 1 6-3 4 1 1 5-3 8v2l6-1 1-8 10-3 4 1-1 6h9l3-3 4 1 4 2 1-7h4l-1 8-4 10-1 4-8 1-2-3-3 1v2l5 1 7 6h4v-8l8-2 10-5 5-3h2l-1 7-9 15-1 3-6 2-12 1-3 6-4 1 2 10 1 1 7-1 3-3h4l-2 4-4 3h-2v2l3-1h8l2 1-1 5-4 4h-18l-1-5-2-1-1 5-9 3h-6l-8 6-1-3 1-4-6-2-5-3 1-12-5 5-4 6-8 10-5-1h-4-9l-1 3-14-2-1-2-3 3h-15l-5 5-9 11-10 8-14 7-2 8-2 16-3 8-2 20-2 56-1 1h-12l1-22v-29l-2-19-3-14-9-16-4-5-7-4-18-7-16-8-11-5-11-2-14-5-23-8-15-2-42-12-13-5-5 1-8 1-7-2-3-5-10-6-5-8-4-3-8-2-2-2v-7l3-6 9 2 8 3 3-1 5-5v-4l-5-6v-2h-7l-1-1 1-7 2-5 1-10 5-1 2 1h6l5-3h2l-3-6v-4l5-2 2-3 4 2 6 1h3l1 1v-4h10l4-3-8-14-1-3 7-4h9l1 2-1 4 6-2-2-5-4-9 4-1 6 5 10 4h10l1-2-9-3-5-3 1-5 3-2v-3l-6-1-5 4-10-2h-6l-3 2h-3l1-6 3-7-7-3-3-9v-10l5 1 9 12v2h4l4-7 1-7 3-1 9 5 5-1 2 2v3l-2 2h3l1-14-3-1v-2l4 1 2 2 4-1-1-6 5-1 3 9 5 5h12l-1-6-4-1 1-4 4 2 3 6 5 1 6-3h2l1-4h2l3 4 7-2h4l-3-6-4-4 1-6 4-2-1-3-4-2-3-4-10 2v-10l2-3v-11l-5-13v-7l4-3-1-7 9 2 5 5 2 9 6 4 4-1v-8l-3-2v-2l5 1 2 6 6 1 3-18 5-5h4l1 5h7l5 2v30l5 1 1-15v-8l4-4v-5l-2-2v-5l1-3-1-8z" fill="#619760"/>
<path transform="translate(1547,567)" d="m0 0h52l16 2 13 5 9 6 8 8 5 9 4 11 2 9v12l-5 16-7 12-8 8-5 4 1 5 2 6v6l-5 6-8 4h-7l-9-7-7-11h-35v43l-3 8-5 5-7 3-9-2-7-6-2-7v-140l2-7 7-6z" fill="#73C377"/>
<path transform="translate(971,567)" d="m0 0h53l15 2 14 5 10 7 8 9 5 10 3 9 1 6v15l-3 11-4 10-8 10-8 7-1 4 3 7v6l-4 6-6 4-3 1h-7l-6-4-6-7-5-7-35-1v46l-3 7-6 5-9 2-8-3-5-6-1-6v-143l3-5 5-5z" fill="#73C377"/>
<path transform="translate(529,567)" d="m0 0 7 1 6 4 7 7 11 14 11 13 13 16 11 14 28 34 4 5v2h3v-30l1-23 6-7 7-3 7 1 8 6 3 5v100l-4 6-6 4-6 1-9-4-10-10-11-14-18-22-13-16-11-14-12-14-12-15-3-1 1 4v90l-3 8-8 7-7 1-8-3-5-6-1-2-1-11 1-138 5-6z" fill="#73C377"/>
<path transform="translate(192,567)" d="m0 0h33l8 3 6 8 1 2v8l-7 8-5 3-5 1h-16l1 35 59 1 7 4 5 9-1 9-5 6-6 3-59 1v35l1 1h64l7 2 5 4 4 7 1 6-6 10-5 3-5 1h-81l-10-2-6-5-1-4-1-19v-127l2-5 5-5z" fill="#73C377"/>
<path transform="translate(1362,567)" d="m0 0h35l7 3 6 7 2 5-1 6-5 7-7 4-4 1-16 1v34l59 1 6 3 6 8 1 7-6 9-7 4-12 1h-48v36h68l7 3 6 8 1 9-3 7-5 4-6 2h-85l-7-2-5-4-2-4-1-47 1-103 6-7z" fill="#73C377"/>
<path transform="translate(750,567)" d="m0 0 8 2 7 7 2 6 1 91 3 13 6 10 7 6 9 4 12 2 13-1 10-3 8-5 7-8 4-9 2-9 1-12 1-35 3-5 7-5 8-1 7 4 6 8 1 4-1 45-3 14-5 12-6 10-9 11-11 8-16 7-16 4h-13l-18-4-12-5-11-7-8-7-9-13-5-10-4-15-1-11v-92l5-7 5-3z" fill="#73C377"/>
<path transform="translate(1202,562)" d="m0 0h11l17 3 11 4 11 6 9 8 5 8 1 6-2 7-8 7h-8l-20-12-11-4h-16l-9 3-7 6-3 6v7l4 6 5 4 13 6 25 10 19 9 9 7 8 8 6 12 2 9v9l-2 10-7 14-5 6-10 7-12 5-15 3h-13l-10-4-8-6-3-6 1-9 5-7 5-2 13 1h10l9-3 7-8 2-5v-6l-4-6-5-4-16-8-10-4-18-6-16-8-10-8-6-7-4-8-2-8v-15l5-14 7-10 8-8 14-7z" fill="#73C377"/>
<path transform="translate(1723,567)" d="m0 0 7 1 6 4 7 10 14 22 12 19 6 10 3 1 2-5 7-12 5-6 6-3h7l8 5 5 7 1 6-8 15-10 15-7 12-1 3-1 54-4 7-6 4-8 1-8-4-4-5-1-3-1-56-10-17-13-20-14-22-12-19-2-5v-7l4-7 6-4z" fill="#73C377"/>
<path transform="translate(629,802)" d="m0 0h26l12 3 8 7 3 5 1 4-1 13-4 10-5 6-10 5-10 2-10 1-2 5-4 15-10 1-8-1v-9l10-56 2-9z" fill="#73C377"/>
<path transform="translate(925,801)" d="m0 0h13l15 5 7 4-1 5-8 10-7-1-8-3h-9l-1 5 16 8 8 6 4 6 1 3v10l-5 10-9 8-9 3h-11l-14-4-11-7-1-3 4-7 6-5 5 1 10 4h8l4-1v-5l-17-7-7-6-3-6-1-10 3-10 5-7 9-5z" fill="#73C377"/>
<path transform="translate(1109,820)" d="m0 0h10l10 4 5 4 4 7v15l-4 15-6 8-7 5-7 2h-10l-3 7-2 9-1 1h-17l-1-1 1-10 9-50 2-10 2-2z" fill="#73C377"/>
<path transform="translate(1048,820)" d="m0 0h10l10 4 6 5 3 6v16l-3 12-4 8-6 5-7 3-7 1-8-1-3 15-2 3h-16l-2-1 2-13 9-52 2-6 11-4z" fill="#74C478"/>
<path transform="translate(1189,822)" d="m0 0h18l1 1-1 10-4 24v2h6l3-9 5-27 1-1h18l1 4-8 43-3 11-4 8-9 8-9 3h-9l-10-3-7-5 1-5 6-7h7l5 2h7v-3l-11-2-8-7-2-5v-10l4-24z" fill="#73C377"/>
<path transform="translate(988,599)" d="m0 0h42l8 3 5 5 4 7 1 5v11l-4 9-6 7-9 3-12 1h-29l-1-1v-49z" fill="#FEFEFE"/>
<path transform="translate(1563,599)" d="m0 0h43l7 3 5 4 4 7 1 4v14l-5 10-7 6-6 2-12 1h-29l-1-1z" fill="#FEFEFE"/>
<path transform="translate(1349,820)" d="m0 0h8l11 4 5 4 4 8 1 8-3 15-6 12-7 6-7 3h-12l-9-4-6-5-3-6v-14l4-16 4-6 7-6z" fill="#73C377"/>
<path transform="translate(1297,801)" d="m0 0h8l12 4 7 4 1 3-4 6-7 6-9-3h-8l-5 4-3 8-3 15v9l3 3h8l9-3h5l5 9v6l-9 5-7 2h-15l-10-4-6-5-4-10v-10l2-15 4-15 5-8 8-7z" fill="#73C377"/>
<path transform="translate(375,653)" d="m0 0h45l13 1 5 4 4 8v7l-4 7-7 4h-63l-6-3-5-8v-9l6-8 3-2z" fill="#60975F"/>
<path transform="translate(738,820)" d="m0 0h13l8 4 6 5 2 4v16l-3 17-3 9-2 2-15 3h-12l-8-4-5-5-2-4v-12l4-7 8-5 9-1h11v-2h-21l-4-7v-7l10-5z" fill="#73C377"/>
<path transform="translate(800,820)" d="m0 0h10l10 4 5 5 3 4 1 3-1 15-5 25-2 2-5 1h-7l-5-1 1-13 3-16 1-10h-8l-5 25-3 13-4 2h-8l-7-1 1-11 7-38 3-5z" fill="#73C377"/>
<path transform="translate(972,822)" d="m0 0h17l1 1-1 11-5 28h8l2-7 5-29 2-4h16l2 1-1 12-6 31-3 9-5 3-10 2h-10l-11-4-6-7-2-5v-12l4-22z" fill="#74C478"/>
<path transform="translate(848,809)" d="m0 0h15l1 13 9 3-1 10-2 5h-9l-3 22 9 1v7l-3 8-6 2-9-1-6-4-4-5-1-10 3-22 5-25z" fill="#73C377"/>
<path transform="translate(1159,802)" d="m0 0 16 1 1 4-8 45-2 10 8 1-1 12-3 4-9 1-8-4-5-6-1-2v-14l5-29 4-20z" fill="#74C478"/>
<path transform="translate(695,802)" d="m0 0 16 1 1 5-9 50v3l7 3-1 10-2 4-6 2-9-2-7-6-2-5v-10l7-42 3-12z" fill="#73C377"/>
<path transform="translate(995,355)" d="m0 0 6 1 2 1v2l10 1 2-2 4 1 7 12v4l-4 1 1 5 4 2 4 8-1 7h-2v3l4 1v6l-4-2-5-6-3-5-13-13-11-7-2-3v-7l-2-5z" fill="#FEFEFE"/>
<path transform="translate(1161,686)" d="m0 0 8 1 6 4 4 7v8l-4 8-7 4h-10l-6-3-5-8v-9l4-7 6-4z" fill="#647665"/>
<path transform="translate(1066,704)" d="m0 0 9 1 5 3 4 5 1 3v9l-3 5-6 5-2 1h-9l-6-3-4-5-2-6 1-8 4-6z" fill="#647665"/>
<path transform="translate(645,567)" d="m0 0 9 2 5 4 3 6v10l-5 7-9 4-7-1-6-4-4-6-1-7 3-8 7-6z" fill="#637564"/>
<path transform="translate(1826,567)" d="m0 0 8 1 8 7 2 6-1 9-6 7-8 3-9-2-7-8-1-3v-8l5-8 5-3z" fill="#637565"/>
<path transform="translate(1438,568)" d="m0 0h11l6 4 4 6v11l-5 7-6 3h-10l-7-5-3-5v-11l4-6z" fill="#637464"/>
<path transform="translate(267,568)" d="m0 0h11l6 4 4 7 1 5-3 8-7 6-5 2-9-2-6-5-3-7 1-8 4-6z" fill="#637464"/>
<path transform="translate(861,568)" d="m0 0h11l6 4 4 7 1 6-3 7-7 6-5 2-7-1-6-4-4-6v-11l4-6z" fill="#637565"/>
<path transform="translate(1642,704)" d="m0 0 9 1 7 6 2 4v11l-5 7-6 3h-8l-6-3-5-6-1-3v-9l4-6 6-4z" fill="#637464"/>
<path transform="translate(1152,145)" d="m0 0 5 1 1 4-5 3v1l5 1-1 5-4 1h-2l-1 13-3 7-3 8h-7l-2-1 1-6-2-1v5l-3-1-1-12-2-1-1-5 2-2 1 5 5-2 4-8 7-13z" fill="#6BA46B"/>
<path transform="translate(822,213)" d="m0 0 12 4 2 2h7l3 7 5 2 1 6-1 2h-6l-2-6-4 2-3 3-9 5-4 4-3-1-1-6-5-2 2-4 3-7 3-2-2-4v-4z" fill="#609860"/>
<path transform="translate(853,278)" d="m0 0 4 1 1 4-4 6-1 7v9l-3 5-8 1-4-2 1-4v-2l-7-2-3-2v3l-4 1-1-1 1-7 6-2h3l3-9 4-1 10 4v-7z" fill="#FDFDFD"/>
<path transform="translate(1391,858)" d="m0 0 8 1 5 5v7l-6 7-2 1h-7l-6-6v-8l5-6z" fill="#73C277"/>
<path transform="translate(1089,253)" d="m0 0 2 1 2 5v5l-2 2-5-1-2-1-1 7-5 1 2 5 3 2 1 7-1 6-3-1v-8h-7l-1-3 3-12v-2l-5-1 2-5 1-4 6 1h4l3 3 2-2z" fill="#FEFEFE"/>
<path transform="translate(919,206)" d="m0 0h6l5 6h5l5-4h2l-1 4-2 5-1 2 2 1-1 5h-5l-6-4-3-1-1-2-7 1-9-7 1-3 7 2z" fill="#FEFEFE"/>
<path transform="translate(1076,360)" d="m0 0h4l-1 7-4 6-8 7-8 4-5 1-1-3 6-9 4-5 10-6z" fill="#FEFEFE"/>
<path transform="translate(1351,839)" d="m0 0 7 1-1 11-3 9-3 3-7-1v-8l4-13z" fill="#FEFEFE"/>
<path transform="translate(1111,839)" d="m0 0h7l1 1v8l-4 12-3 3h-5l-1-1v-7l3-13z" fill="#FEFEFE"/>
<path transform="translate(1050,839)" d="m0 0h6l2 2-1 13-3 7-4 2-5-1 1-10z" fill="#FEFEFE"/>
<path transform="translate(646,821)" d="m0 0 8 1 4 3v6l-5 5-6 3-5-1v-7l3-9z" fill="#FEFEFE"/>
<path transform="translate(1112,240)" d="m0 0h6l1 3h2v2h-2v5l-3 3-1 3-5 2-6 2-2 2-3-1 2-3h2l2-9 4-3h2v-5z" fill="#FEFEFE"/>
<path transform="translate(1198,334)" d="m0 0h1l2 7 7-1 3-3h4l-2 4-4 3h-2v2l3-1h8l2 1-1 5-4 4-9-2 1-3 4 2-1-2-5-3v-3h-10l-2-3 3-1 2 1z" fill="#73C176"/>
<path transform="translate(1046,260)" d="m0 0 3 1 2 5h5v2l2 1h-4v10l-4 2-7-9v-2h-2v-3l3-2z" fill="#80B381"/>
<path transform="translate(1091,159)" d="m0 0 4 1-3 3 1 9-4 5 3 1-1 5-8 3-2-1 1-4 2-2v-7l-3-2 1-3 4 1 2 2 1-7z" fill="#F8FBF8"/>
<path transform="translate(966,355)" d="m0 0 5 2 7 8 4 4v2h-6l-12-5-2-4z" fill="#FEFEFE"/>
<path transform="translate(968,233)" d="m0 0 9 1 4 6 2 2v3l-8 5-4-1 1-3v2l3-1 1-3-4-1-4-5z" fill="#6CAC6E"/>
<path transform="translate(1089,185)" d="m0 0 4 2v9l-4 4-2 4-6-1v-2l3-2-2-1 1-7 5-5z" fill="#FEFEFE"/>
<path transform="translate(1046,364)" d="m0 0 5 3 1 1v7l-2 6-2 11-2-1-1-4v-22z" fill="#FEFEFE"/>
<path transform="translate(1008,65)" d="m0 0 4 1 5 8-1 5-4 5-4-1-1-1v-5l1-3-1-8z" fill="#65A265"/>
<path transform="translate(861,286)" d="m0 0 5 2 5 7v3l-5 1-4-4-7 1-1-4 3-4z" fill="#FEFEFE"/>
<path transform="translate(868,269)" d="m0 0 3 2 1 3 3 3 3 1v4l-6-1-2 3-5-1-1-4z" fill="#EEF7EE"/>
<path transform="translate(891,339)" d="m0 0 4 2 6 5 1 5-5 1-7-3-1-1v-7z" fill="#FEFEFE"/>
<path transform="translate(942,208)" d="m0 0 5 3 1 4h3v2l3 1-2 2h-14v-3z" fill="#6AAA6B"/>
<path transform="translate(940,251)" d="m0 0 4 1 2 6 3 3v2l4-1 3 2-1 6-5-2-8-7-3-9z" fill="#FEFEFE"/>
<path transform="translate(856,301)" d="m0 0 7 2 4 4v6l-1 1h-6l-3-2 1-3 2-1-4-4z" fill="#FEFEFE"/>
<path transform="translate(1041,129)" d="m0 0h4v5l-4 6-2 11h-1v-13l-4-3 1-4z" fill="#FEFEFE"/>
<path transform="translate(898,251)" d="m0 0h3l1 6 4 2 6 4 2 4 7 1v2h-8l-11-9-6-8z" fill="#ECF6ED"/>
<path transform="translate(1101,277)" d="m0 0 5 1 1 4v7h-4l-5-4-2-5z" fill="#FEFEFE"/>
<path transform="translate(1152,145)" d="m0 0 3 1-6 12-4 2-1-1v-9l4-4z" fill="#6FBA72"/>
<path transform="translate(1049,269)" d="m0 0h4l1 5v5l-4 2-6-8v-2z" fill="#FEFEFE"/>
<path transform="translate(961,234)" d="m0 0h2l2 7h3v8l-4-2-2-7-10-2v-2h5l4 1z" fill="#FEFEFE"/>
<path transform="translate(845,226)" d="m0 0 6 2 1 6-1 2h-6l-2-6-2-1h2l1-2z" fill="#68A969"/>
<path transform="translate(741,856)" d="m0 0 5 2-1 5h-9l-1-3 3-3z" fill="#FEFEFE"/>
<path transform="translate(818,326)" d="m0 0 9 1 4 2-1 4-7-1-5-4z" fill="#FEFEFE"/>
<path transform="translate(1103,349)" d="m0 0 8 1v10l-2-2-3 2 1-5-7-1 1-3h2z" fill="#94D197"/>
<path transform="translate(875,286)" d="m0 0 4 1-1 9h-4l-3-5z" fill="#FEFEFE"/>
<path transform="translate(975,235)" d="m0 0 3 1 5 6v3l-8 5-4-1 1-3v2l3-1 2-3 2 1-3-7z" fill="#FEFEFE"/>
<path transform="translate(1022,93)" d="m0 0 4 1 2 4v3l-5 2-2 1v-2l-3-1 3-1z" fill="#6BAF6C"/>
<path transform="translate(928,223)" d="m0 0h5l5 2 6 5v3l-4-1-4-3v-3l-6 1z" fill="#7EC882"/>
<path transform="translate(1057,113)" d="m0 0 4 1-1 3-2 1 2 2-4 2h-6l-4-3 7-1 3-1z" fill="#71B874"/>
<path transform="translate(822,213)" d="m0 0 8 3-2 4-5 2-3-4v-4z" fill="#7EB880"/>
<path transform="translate(983,242)" d="m0 0 2 3v5l2 4-5-1-2-3-3-2 4-3h2z" fill="#95D298"/>
<path transform="translate(939,355)" d="m0 0 5 1-1 5-5 2-2-4z" fill="#FEFEFE"/>
<path transform="translate(944,216)" d="m0 0h7l3 3-2 1h-12v-2z" fill="#FEFEFE"/>
<path transform="translate(980,375)" d="m0 0h6l8 4 1 3-6-1-9-5z" fill="#FEFEFE"/>
<path transform="translate(975,370)" d="m0 0 7 1-1 2 3 2-8 1-4-2v-3z" fill="#74C478"/>
<path transform="translate(949,359)" d="m0 0 3 1v4l-7 2-6-2v-2l4-1v2h4z" fill="#A2D7A4"/>
<path transform="translate(1138,272)" d="m0 0h3l-2 5-8 4-2-1 4-5z" fill="#FEFEFE"/>
<path transform="translate(968,233)" d="m0 0h5v2h-2l1 4 5 3-1 2-4-1-4-5z" fill="#FEFEFE"/>
<path transform="translate(1046,260)" d="m0 0 3 1 1 5h-4l-1 3-4 1v-3l3-2z" fill="#B9E1BB"/>
<path transform="translate(1057,228)" d="m0 0h3l3 7v2l-5-1-1-1z" fill="#FEFEFE"/>
<path transform="translate(1023,398)" d="m0 0 5 1v2l4 1v6l-4-2-5-6z" fill="#B7E0B9"/>
<path transform="translate(1198,334)" d="m0 0h1l2 7 5 1-4 2h-7l-2-3 3-1 2 1z" fill="#74C478"/>
<path transform="translate(944,316)" d="m0 0 3 1 2 7-1 3h-2l-3-7z" fill="#FEFEFE"/>
<path transform="translate(910,260)" d="m0 0 7 3 2 5-3 1-4-4v-2h-2z" fill="#668467"/>
<path transform="translate(983,381)" d="m0 0h8l1 4 2 1-7-1-4-2z" fill="#648465"/>
<path transform="translate(979,352)" d="m0 0 9 1v3l-4 2-5-4z" fill="#FEFEFE"/>
<path transform="translate(1171,314)" d="m0 0h4l1 3-2 4-4-1v-5z" fill="#FEFEFE"/>
<path transform="translate(1120,158)" d="m0 0 5 1 1 4-4 1-4-5z" fill="#FEFEFE"/>
<path transform="translate(1036,136)" d="m0 0h7l-2 4-2 11h-1v-13z" fill="#B0DDB2"/>
<path transform="translate(1044,355)" d="m0 0 5 1-1 5-5-1z" fill="#FEFEFE"/>
<path transform="translate(1e3 345)" d="m0 0h7v4h-6l-2-1z" fill="#FEFEFE"/>
<path transform="translate(797,321)" d="m0 0 5 1 3 4h-7l-2-4z" fill="#668C68"/>
<path transform="translate(868,343)" d="m0 0 7 1v3h-7l-3-1v-2z" fill="#658366"/>
<path transform="translate(1147,314)" d="m0 0 4 1 2 4-3 2-3-3z" fill="#FEFEFE"/>
<path transform="translate(1112,258)" d="m0 0h3v6h-4l-1-4z" fill="#FEFEFE"/>
<path transform="translate(1169,239)" d="m0 0h7l2 1v2l-2 1h-7z" fill="#FEFEFE"/>
<path transform="translate(1169,230)" d="m0 0h4v7l-3 1-1-2z" fill="#B4DEB6"/>
<path transform="translate(1211,337)" d="m0 0h4l-2 4-7 2v-2z" fill="#68A56A"/>
<path transform="translate(1051,221)" d="m0 0 5 1 1 5-5-1z" fill="#FEFEFE"/>
<path transform="translate(1114,157)" d="m0 0h2l1 3-2 2-1 4h-2l-1-3 2-5z" fill="#FEFEFE"/>
</svg>
