<svg width="105" height="132" fill="none" xmlns="http://www.w3.org/2000/svg"><path d="M38.523 76.75c.071-.551.12-1.103.191-1.654 0-.096.024-.192.048-.288 0-.048.024-.072.072-.072.311.024.646.048.934.192.359.168.598.432.646.84.048.43-.12.766-.479 1.006-.024.024-.047.024-.047.048-.096.072-.096.072-.072.191.143.432.263.863.407 1.295.024.096.024.12-.072.144-.072.024-.168.024-.24.048-.095.024-.12 0-.143-.096-.12-.384-.24-.767-.383-1.175-.072-.216-.072-.168-.216-.144-.191.024-.191 0-.215.216l-.144 1.294c-.024.12-.024.12-.12.144a.85.85 0 0 1-.24.048c-.095.024-.119 0-.095-.096.048-.383.096-.767.12-1.15l.048-.791Zm.574-.863c-.024.24-.047.48-.072.719 0 .072.025.096.096.096.048 0 .072 0 .12-.024a.875.875 0 0 0 .694-1.03c-.071-.312-.287-.48-.598-.552-.096-.024-.144 0-.144.096-.048.24-.072.48-.096.695Zm12.572 1.653-.144 1.247c-.024.12-.024.12-.144.096a.277.277 0 0 1-.167-.12c-.336-.647-.695-1.27-1.03-1.893-.024-.024-.024-.096-.072-.072-.048 0-.024.072-.048.096-.048.503-.12 1.006-.167 1.534-.024.12-.024.12-.144.12-.192-.024-.192-.024-.168-.24.072-.72.168-1.438.24-2.181.024-.168.024-.192.215-.168.072 0 .12.024.192.024a.18.18 0 0 1 .168.12c.263.503.55.982.814 1.486.024.024.024.096.072.096.047 0 .023-.072.047-.12l.144-1.294c.024-.12.024-.144.168-.12.167.024.191.024.167.215-.048.36-.095.767-.143 1.175Zm-14.751-.503.216-1.989v-.096c0-.096 0-.096-.096-.12-.12-.024-.215-.024-.335-.048-.096 0-.12-.024-.096-.12v-.095c0-.096.024-.12.12-.096.12.024.24.024.359.048.335.048.67.072 1.006.12.095 0 .12.023.095.143 0 .048 0 .072-.023.12 0 .072-.048.096-.096.072-.12-.024-.24-.024-.36-.048-.143-.024-.143 0-.167.12-.12.983-.216 1.99-.335 2.972-.024.312-.072.623-.096.935 0 .096-.048.12-.12.144-.096.024-.191.072-.287.096-.072.024-.096 0-.096-.072v-.096c.144-.647.24-1.318.311-1.99Zm4.023-.407c.048-.503.12-1.03.168-1.534.024-.12.024-.12.143-.12.36.048.743.072 1.102.12.096 0 .12.024.096.12v.096c-.024.12-.024.12-.144.12l-.575-.072c-.12 0-.12 0-.143.12a8.402 8.402 0 0 1-.096.766c0 .096 0 .12.096.12h.359c.096 0 .12.024.12.12 0 .216-.024.216-.216.216h-.311c-.072 0-.096.024-.12.096-.048.335-.072.647-.12.983 0 .071.024.095.096.095.216-.023.431-.047.647-.072.095-.023.12 0 .12.12 0 .048 0 .072-.025.12 0 .096-.023.096-.12.12-.382.048-.79.096-1.173.144-.095.024-.12 0-.095-.096.071-.551.143-1.079.191-1.582Zm1.892.024.144-1.246c0-.048.023-.096.023-.144 0-.072.048-.072.096-.072.096.024.192.024.288.024.263.024.55.048.814.096.096 0 .12.024.096.12 0 .047 0 .072-.024.12 0 .071-.024.095-.12.095l-.623-.072c-.12-.024-.12 0-.143.12l-.072.6c0 .095 0 .12.096.12.12 0 .263 0 .383.023.095 0 .095.024.095.12-.024.216-.024.216-.24.216h-.31c-.072 0-.096.024-.096.096-.024.263-.048.527-.096.79 0 .073.024.097.096.097.215 0 .43-.024.646-.024.096 0 .12.024.096.096 0 .047 0 .095-.024.143 0 .072-.024.096-.12.096-.287.024-.598.024-.886.048h-.239c-.12 0-.12-.024-.12-.12.144-.48.192-.91.24-1.342Zm2.514 0c.072-.48.335-.863.814-1.055.407-.144.79-.048 1.126.24.072.072.072.096 0 .168 0 .024-.024.024-.024.048-.072.096-.12.096-.216.024-.096-.048-.191-.096-.287-.12-.288-.072-.527.048-.695.263a.98.98 0 0 0 .024 1.27.7.7 0 0 0 .599.217c.096-.024.215-.048.311-.096.072-.024.096-.024.144.048.024.024.024.048.048.072.048.096.048.12-.024.167a1.11 1.11 0 0 1-1.485-.167c-.287-.312-.383-.648-.335-1.079Zm2.49.312c.048-.36.072-.72.12-1.103.024-.12.024-.144.144-.12.359.048.718.072 1.077.12.096.024.12.024.12.144 0 .048 0 .072-.024.12 0 .072-.048.096-.12.096l-.622-.072c-.12 0-.12 0-.144.12-.024.143-.024.287-.048.455 0 .096 0 .12.096.12.12.024.24.024.36.048.095 0 .095.024.095.12-.024.191-.024.191-.216.167-.095-.024-.191-.024-.287-.048-.096 0-.12 0-.12.096l-.072.623c0 .096 0 .12.096.12.216.024.407.072.623.096.096.024.096.024.096.12 0 .048 0 .096-.024.144 0 .048-.024.072-.096.072-.072 0-.144-.024-.216-.024-.31-.048-.598-.096-.91-.12-.095-.024-.12-.024-.12-.144.097-.407.144-.79.192-1.15Zm5.268 1.03-.143 1.223v.072c0 .047-.048.072-.072.047-.096-.023-.216-.071-.312-.095-.023 0-.047-.048-.047-.072v-.096c.095-.767.167-1.534.263-2.325v-.096c0-.048-.024-.096-.072-.096-.12-.024-.24-.024-.359-.048-.096 0-.12-.024-.12-.144.024-.215.024-.215.24-.191.43.047.838.096 1.269.143.12.024.12.024.12.144 0 .048 0 .072-.024.12 0 .072-.048.096-.096.072-.12-.024-.24-.024-.383-.048-.096 0-.12 0-.12.096-.048.48-.096.887-.144 1.294Zm-6.8 1.199c.191.024.407.048.599.072.12.024.263.024.383.048.191.023.383.047.574.072.144.023.312.023.455.047.216.024.431.048.67.072.384.048.767.072 1.15.12.072 0 .168.024.24.024h.095c.072 0 .096.048.096.072 0 .048-.048.096-.096.072-.047 0-.12 0-.167-.024a15.028 15.028 0 0 0-1.03-.12l-.694-.072a2.08 2.08 0 0 1-.383-.048c-.384-.048-.767-.072-1.15-.12-.335-.047-.67-.072-1.03-.12-.31-.023-.622-.071-.957-.095l-.67-.072c-.025 0-.049 0-.073-.024-.023-.024-.047-.048-.047-.096s.023-.048.071-.072h.144l.67.072.671.072c.168.072.311.096.479.12Zm-2.778 1.485c0 .145-.024.288-.048.432 0 .048 0 .096-.072.096a.132.132 0 0 1-.12-.072c-.071-.12-.143-.215-.19-.335-.049-.096-.12-.192-.168-.288-.024-.024-.048-.072-.096-.072s-.048.072-.048.096c-.024.096-.024.216-.024.336 0 .047-.024.095-.024.143 0 .024 0 .048-.024.048-.024.024-.048.048-.072.024a.052.052 0 0 1-.048-.048v-.072c0-.047.024-.12.024-.167l.072-.6c0-.047 0-.072.024-.12.024-.047.072-.071.12-.047l.072.072c.072.12.143.24.215.335.048.096.096.168.168.264.024.024.024.048.072.048.047 0 .023-.048.047-.072a2.1 2.1 0 0 0 .048-.384c0-.048.024-.096.024-.144.024-.047.048-.071.096-.047.024 0 .048.023.048.071v.072c-.072.192-.072.312-.096.432Zm4.263.456c.023-.12.023-.24.047-.36.024-.143.048-.167.192-.143.12 0 .215.024.311.048a.363.363 0 0 1 .311.36c0 .095-.047.167-.095.24a.455.455 0 0 1-.312.119h-.191c-.072 0-.096.024-.12.096v.096c0 .024 0 .048-.024.072-.024.047-.072.047-.096.047-.047 0-.071-.047-.071-.095v-.144c.024-.096.024-.216.047-.336Zm.215-.144v.096c0 .048.024.072.072.096a.493.493 0 0 0 .263 0c.144-.048.168-.192.072-.287a.183.183 0 0 0-.12-.048c-.048 0-.096 0-.143-.024-.072 0-.096.024-.12.072-.024.023-.024.071-.024.095Zm-.527-.024c0 .072 0 .168-.024.24 0 .072-.024.12-.048.168-.072.192-.287.287-.479.264-.143-.024-.263-.072-.335-.216-.072-.096-.072-.192-.072-.312 0-.167.024-.335.048-.503 0-.024 0-.048.024-.072.024-.048.048-.048.096-.048s.072.024.072.072c0 .072 0 .144-.024.192-.024.144-.048.287-.024.431 0 .12.072.192.168.24a.228.228 0 0 0 .287-.072.272.272 0 0 0 .072-.192c.024-.096.024-.192.024-.263 0-.096.024-.168.048-.24.023-.072.047-.096.095-.096s.072.048.072.12c.024.096 0 .192 0 .287Zm-8.285-.767c.024-.143.024-.287.048-.431 0-.072.048-.096.12-.096.143 0 .263.024.383.048.263.072.36.336.24.527-.096.144-.216.192-.384.192-.048 0-.096 0-.144-.024-.071 0-.12.024-.143.096 0 .048 0 .096-.024.144 0 .072-.048.096-.096.096s-.072-.048-.072-.096c0-.072.024-.144.024-.216.024-.096.024-.168.048-.24Zm.36.048h.167a.18.18 0 0 0 .12-.167.18.18 0 0 0-.12-.168c-.072-.024-.144-.048-.216-.048-.071 0-.12.024-.12.096-.023.048-.023.12-.023.167 0 .048.024.096.072.096a.26.26 0 0 0 .12.024Zm13.385 2.038c-.216-.024-.48-.24-.48-.504 0-.191.049-.36.168-.503a.483.483 0 0 1 .575-.096c.072.024.144.048.192.12l.047.048a.07.07 0 0 1 0 .096c-.023.024-.071.048-.12.024-.023 0-.047-.024-.071-.048-.096-.072-.168-.12-.287-.096a.36.36 0 0 0-.312.264.494.494 0 0 0 0 .263c.072.168.216.264.407.24.048 0 .072-.024.12-.048.024-.024.048-.024.072-.048.048-.024.096 0 .12.048.024.024.024.072 0 .12l-.048.048c-.144.072-.264.096-.383.072Zm-4.023-1.079c0-.096.024-.216.048-.36 0-.095.048-.12.143-.095.12.024.216.024.336.048.096.024.191.048.263.144.168.191.024.503-.191.55-.072.025-.168.025-.24.025h-.072c-.096 0-.12 0-.12.096 0 .047 0 .072-.023.12 0 .023 0 .047-.024.071-.024.024-.048.048-.072.048-.048 0-.072-.024-.072-.072-.024-.048 0-.096 0-.143-.024-.144 0-.264.024-.432Zm.191-.096v.048c0 .096.024.12.12.144h.168c.096 0 .167-.072.191-.168 0-.072-.047-.168-.143-.191-.072-.024-.144-.024-.216-.024-.048 0-.096.023-.096.095-.024.048-.024.072-.024.096Zm-3.208-.719c.12 0 .215.048.287.12.048.048.048.072.024.12s-.072.048-.12.024c-.024 0-.047-.024-.047-.024a.183.183 0 0 0-.12-.048.205.205 0 0 0-.168 0c-.096.024-.12.12-.048.192.024.048.072.048.12.072.072.024.168.047.24.096.12.071.191.167.167.287a.377.377 0 0 1-.24.264c-.167.048-.31 0-.454-.096l-.072-.072c-.048-.048-.048-.096-.024-.12.024-.048.072-.048.12 0l.047.048c.072.048.144.096.24.096.048 0 .096 0 .12-.024.072-.048.095-.144.024-.192-.048-.048-.12-.072-.168-.096a.945.945 0 0 1-.215-.12c-.096-.095-.12-.215-.072-.359.024-.024.024-.048.047-.072a.313.313 0 0 1 .312-.096Zm-4.622.575c-.048 0-.072-.047-.048-.095a.522.522 0 0 1 .12-.192c.072-.12.144-.24.216-.384.048-.096.12-.191.167-.263 0-.024.024-.024.048-.048.048-.048.096-.024.12 0 .024.024.024.048.048.072.096.24.167.503.24.743.023.048.047.12.047.167.024.048 0 .072-.024.096-.024.024-.072 0-.12-.024a.182.182 0 0 1-.047-.096.216.216 0 0 0-.144-.143c-.12-.024-.216-.024-.335-.048-.048 0-.096.024-.144.072a.524.524 0 0 1-.096.12c.024.023 0 .023-.048.023Zm.503-.36h.072c.072 0 .096-.023.072-.095-.024-.072-.024-.144-.072-.192-.024-.072-.072-.072-.12-.024a.468.468 0 0 0-.095.192c-.024.048 0 .096.047.096.048 0 .072 0 .096.024Zm9.387 1.247c.048-.168-.024-.311-.12-.455-.072-.12-.12-.216-.191-.336-.024-.024-.024-.048 0-.096.023-.023.047-.023.095-.023s.096.047.12.095c.048.096.12.192.168.288.047.12.12.12.191.024.072-.072.144-.168.216-.24a.328.328 0 0 1 .095-.072h.096c.048.024.072.048.024.096a.635.635 0 0 1-.12.144c-.095.096-.191.216-.287.312-.048.048-.048.096-.072.144-.024.071-.024.143-.024.215 0 .024 0 .048-.024.072-.024.024-.047.048-.095.048s-.048-.024-.072-.072c-.024-.048 0-.096 0-.144Zm-7.016-.815c.024-.167.024-.335.048-.503.024-.096-.024-.144-.12-.168-.048 0-.072 0-.12-.024-.048 0-.072-.048-.072-.096s.048-.072.096-.072c.072 0 .12 0 .192.024.143.024.287 0 .407.024.024 0 .072 0 .096.024.023.024.047.048.047.072 0 .048-.023.048-.071.048h-.144c-.096 0-.12.024-.12.096a3.034 3.034 0 0 0-.072.671c0 .024 0 .072-.023.096-.024.024-.048.048-.096.048s-.048-.048-.048-.072c-.024-.048 0-.12 0-.168Zm-3.855-.719c0-.12.024-.263.047-.407v-.048c.024-.048.048-.048.072-.048.048 0 .072.024.072.072v.192l-.072.503c-.024.096.024.144.12.144.12.024.216.024.335.048.072 0 .096.048.096.072 0 .047-.048.072-.12.072-.143-.025-.287-.025-.43-.048h-.025c-.12-.024-.143-.048-.143-.168.024-.12.048-.24.048-.384Zm9.721 1.127c.024-.048.024-.12.024-.168 0-.12.024-.216.048-.335 0-.048.024-.072.072-.072.048 0 .072.023.096.072v.095c-.024.096-.024.216-.048.312s-.024.192-.024.312c0 .095.024.12.12.143.096.024.191.024.287.048.024 0 .072 0 .096.024.024 0 .048.024.048.048s-.024.048-.048.072c-.024.024-.048.024-.096 0-.096-.024-.191-.024-.263-.024-.072 0-.12 0-.192-.024-.12-.024-.144-.048-.12-.168a.789.789 0 0 1 0-.335Zm-.55-8.653c-.024.12-.072.216-.168.264-.072.047-.168.072-.24.096-.071 0-.143.023-.215 0-.024 0-.048-.025-.048-.072 0-.024.024-.048.048-.048.072-.024.12 0 .192-.024a.305.305 0 0 0 .215-.168.153.153 0 0 0 0-.144.212.212 0 0 0-.24-.144.756.756 0 0 0-.239.12c-.048.048-.096.072-.144.12-.071.072-.12.144-.191.216-.072.072-.12.168-.192.24-.047.047-.071.095-.12.143-.023.048-.071.096-.095.144-.024.024-.024.024 0 .048 0 .024.024.024.048.024.096 0 .167.024.24.12a.28.28 0 0 1 .047.24c-.024.12-.12.191-.191.287a.636.636 0 0 0-.12.144c-.024.024 0 .072.024.096.024.024.072.024.096.024.023 0 .047-.024.095-.048.024 0 .048-.024.048 0 .024.024 0 .048 0 .072-.048.048-.096.096-.143.12-.072.047-.144.047-.216.047-.096 0-.144-.071-.144-.167-.024-.12.048-.216.096-.288.072-.096.12-.168.192-.264.024-.047.048-.072.048-.12-.024-.071-.072-.095-.12-.071-.048.024-.12.048-.168.095-.072.072-.143.12-.191.192-.048.048-.096.12-.144.192l-.215.288c-.048.048-.144.072-.192.048-.024-.024-.048-.072-.024-.096.072-.072.12-.168.192-.24l.215-.288c.048-.072.12-.143.168-.215.048-.072.12-.144.167-.24l.288-.36c.072-.095.143-.167.215-.24.072-.071.12-.143.192-.215.048-.048.12-.096.191-.144.048-.024.096-.072.144-.096.024-.024.072-.024.096-.024.12-.024.24-.048.335 0 .12.048.192.144.215.264-.023-.024-.023.024-.047.072Zm-2.922 1.75c-.143 0-.215-.12-.215-.24 0-.096.024-.168.072-.264.047-.072.071-.144.12-.191.023-.048.071-.096.095-.144 0-.024 0-.048-.024-.072-.024-.024-.048-.024-.024-.072.024-.024.048-.072.096-.048h.096c.024 0 .048-.024.072-.048.048-.072.095-.144.167-.216.048-.048.072-.096.12-.144a.725.725 0 0 0 .12-.167c.048-.072.12-.096.215-.072.048 0 .048.048.024.096-.048.072-.12.168-.167.24a.732.732 0 0 0-.12.167c-.024.048-.072.072-.096.12v.024c-.024.072-.024.072.024.096h.024c.024 0 .072.024.072.048s-.024.072-.072.072h-.144a.333.333 0 0 0-.143.048c-.048.072-.096.12-.144.191-.072.096-.144.192-.168.288 0 .024-.024.072 0 .096.024.024.072.024.096.024.048 0 .096-.048.144-.072.048-.024.072-.072.12-.096h.047c.024.024.024.024.024.048s-.024.048-.048.072a.746.746 0 0 1-.215.168c-.048.024-.12.072-.168.048Z" fill="#fff"/><path d="M49.154 73.754c.12 0 .192.072.216.143a.284.284 0 0 1-.024.24.444.444 0 0 1-.192.168 1.119 1.119 0 0 1-.24.12c-.047.024-.07.024-.119.048a.052.052 0 0 0-.048.048c0 .048.024.072.048.096a.26.26 0 0 0 .192.024.851.851 0 0 0 .215-.096c.024-.024.048-.024.072-.024.024 0 .048 0 .048.024.024.024 0 .048 0 .072-.048.072-.12.096-.192.143a.34.34 0 0 1-.143.048c-.072.024-.12 0-.192 0-.096-.024-.167-.048-.24-.144-.023-.047-.047-.095-.047-.167-.024-.12 0-.24.072-.36a.522.522 0 0 1 .167-.216.572.572 0 0 1 .312-.167c.024 0 .071-.024.095 0Zm.024.263c0-.024 0-.072-.048-.096a.072.072 0 0 0-.095 0c-.048.024-.096.048-.144.096-.048.048-.096.12-.144.192-.024.024-.024.048-.024.072 0 .024.024.048.048.048s.072-.024.096-.024c.072-.048.144-.072.192-.12a.278.278 0 0 0 .12-.168Z" fill="#fff"/><path d="M26.047 41.683c.36-.072.719-.168 1.078-.192 1.724-.144 3.472-.12 5.1.551 2.37.983 4.837 1.822 6.992 3.284 1.221.815 2.203 1.846 2.802 3.188.55 1.247.766 2.517.55 3.86a34.685 34.685 0 0 1-.335 1.677c-.048.24-.048.431.144.623.311.312.599.623 1.005 1.055.12-.551.216-.935.288-1.342.168-.983.311-1.966.527-2.925.12-.503 0-.982-.048-1.486-.072-.79-.24-1.582-.288-2.397-.023-.431-.239-.719-.526-.982-.958-.863-1.94-1.726-2.922-2.589-1.22-1.103-2.49-2.157-3.687-3.284-1.102-1.054-2.036-2.229-2.754-3.571-.958-1.774-1.317-3.643-1.125-5.657.143-1.294.407-2.565.934-3.763a5.05 5.05 0 0 1 .263-.503c1.101-.024 2.155-.048 3.233.167a11.83 11.83 0 0 1 3.088 1.079c.958.48 1.796 1.15 2.61 1.822l.096-.096c-.143-.168-.263-.336-.407-.48-1.173-1.246-2.37-2.445-3.472-3.739-.694-.79-1.245-1.702-1.82-2.564a45.764 45.764 0 0 0-4.453-5.61c-.288-.31-.6-.646-.863-1.054.192.024.384.048.575.096 2.299.575 4.43 1.582 6.418 2.852a21.267 21.267 0 0 1 3.472 2.733c1.412 1.39 2.657 2.924 3.472 4.746.478 1.078.814 2.18.766 3.38-.024.503-.144 1.03-.24 1.51-.12.527-.143.527.407.91.048-.144.12-.264.144-.407.096-.96.144-1.918.264-2.853.167-1.414-.048-2.828-.12-4.218-.024-.264-.12-.408-.336-.552-3.208-1.989-5.53-4.793-7.255-8.101-1.125-2.157-1.916-4.434-2.25-6.831-.192-1.367-.216-2.757.215-4.099.191-.6.479-1.15.79-1.702.311-.6.838-.767 1.509-.719 1.652.12 3.136.671 4.501 1.558 1.892 1.222 3.305 2.876 4.478 4.77.814 1.318 1.509 2.708 1.868 4.242.574 2.277.335 4.483-.48 6.64-.119.311-.287.623-.406.959-.12.311-.192.647-.24 1.006-.072.624-.072 1.247-.096 1.894 0 .072.048.12.12.288.12-.168.216-.288.288-.408.694-1.294 1.364-2.613 2.059-3.907.144-.264.191-.527.12-.815-.048-.215-.048-.455-.048-.695-.024-.719-.12-1.462-.096-2.181.072-2.757.335-5.489 1.221-8.126.934-2.756 2.538-5.01 4.909-6.687C59.954.72 62.013-.023 64.312 0h.24c.478.024.574.095.574.575.048 3.116-.719 6.016-2.155 8.773-1.126 2.133-2.658 3.954-4.286 5.728-1.533 1.678-4.454 4.17-6.25 5.561.024-.407.048-.959 1.844-2.013 1.197-1.103 2.442-2.134 3.591-3.308 1.796-1.846 3.473-3.787 4.694-6.064a17.837 17.837 0 0 0 1.94-5.8c.071-.48.143-.984.19-1.487.025-.192-.023-.383-.047-.6-.048-.023-.096-.023-.144-.047-.12.168-.263.311-.359.48-2.993 4.481-5.914 9.036-8.692 13.662-1.868 3.116-3.712 6.256-5.292 9.54-.191.407-.407.79-.55 1.198a3.289 3.289 0 0 0-.168.815c-.096 1.078-.168 2.181-.24 3.26-.024.24 0 .479 0 .863.431-.432.814-.744 1.126-1.103.072-.096.072-.288.047-.431-.574-2.59.432-4.627 2.3-6.28 2.322-2.086 5.076-3.212 8.165-3.572 1.795-.216 3.543-.072 5.291.384.12.024.264.072.384.12.263.071.335.263.24.479-.288.575-.528 1.15-.887 1.654-.838 1.198-1.987 2.037-3.208 2.804-1.222.767-2.515 1.39-3.856 1.918-2.514.982-5.028 1.941-7.543 2.948-.43.168-.79.527-1.125.839-.527.527-1.006 1.102-1.532 1.678.095-1.582.167-3.116.263-4.65.096-1.51.335-3.044.24-4.579-.384.456-.839.816-.839 1.487 0 .479-.167.958-.215 1.462-.12 1.438-.216 2.876-.335 4.29-.216 2.47-.455 4.962-.647 7.43-.287 3.452-1.101 6.832-1.676 10.236-.264 1.558-.55 3.092-.814 4.626-.36 2.109-.742 4.218-1.078 6.328-.263 1.677-.455 3.38-.694 5.057-.072.455 0 .575.335.671.455.12.55.048.623-.455l1.005-7.263c.072-.48.48-2.78.575-3.26.048-.24.048-.24.431-.264-.024.216 0 .408-.048.624-.263 1.821-.862 5.465-1.125 7.286-.072.456-.024.528.43.6.671.12 1.366.24 2.036.335.24.048.479.096.718-.072.168-.096.407-.12.6-.144 1.484-.023 2.944 0 4.405.264.503.096 1.03.12 1.533.192.766.096 1.293-.312 1.628-.935a165.921 165.921 0 0 0 1.82-3.571c.814-1.654 1.508-3.356 2.562-4.866.383-.575.862-1.079 1.293-1.606.263-.312.527-.623.766-.935.192-.264.383-.431.718-.503.264-.072.503-.24.719-.432.598-.503 1.245-.982 1.963-1.27.335-.144.719-.216 1.102-.264.383-.024.718.168.838.552.12.383.191.767.191 1.174 0 .168-.143.36-.263.48-.335.263-.67.503-1.03.719-.622.335-1.149.767-1.532 1.342a2.165 2.165 0 0 1-1.365.959 1.248 1.248 0 0 0-.67.479c-.647.935-1.341 1.87-1.868 2.876-1.078 2.014-2.083 4.051-3.113 6.088-.24.48-.192.6.383.72 2.49.575 4.98 1.15 7.495 1.75 2.754.647 5.507 1.246 8.261 1.965 1.365.36 2.706.767 4.119 1.006.981.168 1.94.384 2.92.6.671.144 1.294.455 1.869.839.646.431 1.053 1.03 1.269 1.773.167.552 0 .983-.431 1.319-.312.24-.623.48-.982.599-1.006.335-1.676 1.055-2.18 1.941-.382.695-.694 1.439-1.005 2.182-.359.815-.67 1.63-1.005 2.444-.072.144-.096.312-.144.456.048.024.072.048.12.072.12-.144.239-.264.359-.408 3.64-4.817 7.255-9.611 10.895-14.43a225.645 225.645 0 0 1 3.64-4.721c1.053-1.342 2.298-2.517 3.759-3.428.12-.072.287-.167.36-.287.239-.408.622-.504 1.053-.6.527-.12 1.03-.287 1.532-.479.719-.311 1.413-.695 2.131-.983.407-.167.886-.263 1.317-.311.575-.048.886.24 1.054.79.287.912.096 1.583-.742 2.062-.599.36-1.27.623-1.916.91-.431.193-.886.384-1.317.552-.311.144-.599.288-.814.6a1.029 1.029 0 0 1-1.006.455c-.335-.048-.527.096-.742.288-1.509 1.486-2.897 3.044-4.238 4.673-2.419 2.949-4.574 6.089-6.873 9.133-3.16 4.17-6.37 8.317-9.578 12.464-1.173 1.534-2.299 3.116-3.209 4.817-.91 1.75-1.556 3.572-1.676 5.561a105.654 105.654 0 0 0-.215 3.883 18.759 18.759 0 0 1-1.868 7.527c-.766 1.63-1.652 3.212-2.873 4.53-1.198 1.318-2.61 2.301-4.478 2.445-1.509.12-2.778-.312-3.712-1.582-.814-1.103-1.269-2.373-1.484-3.691a171.315 171.315 0 0 1-.695-5.058 9.24 9.24 0 0 0-.814-2.852 3.845 3.845 0 0 0-1.077-1.319c-.599-.503-1.293-.599-2.06-.407-.742.192-1.34.623-1.987 1.031-3.735 2.373-7.47 4.793-11.206 7.19-.934.6-1.868 1.223-2.802 1.822-.287.168-.431.383-.455.743-.048 2.349-.694 4.578-1.652 6.687-1.174 2.613-2.778 4.914-4.717 7.023-2.347 2.517-5.053 4.483-8.262 5.753-1.412.551-2.897.911-4.43.887-2.107-.024-4.022-.695-5.698-1.99-1.245-.958-2.203-2.181-2.97-3.547-.263-.503-.598-.671-1.173-.719-2.538-.24-4.813-1.079-6.585-2.996-.934-.983-1.389-2.205-1.532-3.524-.096-.863.191-1.702.503-2.516a12 12 0 0 1 2.873-4.243c1.365-1.318 2.802-2.541 4.214-3.811.551-.503 1.15-.959 1.677-1.486a3.15 3.15 0 0 0 .718-.959c.742-1.51 1.556-2.972 2.562-4.338a17.7 17.7 0 0 1 4.597-4.363c1.317-.863 2.73-1.654 4.047-2.517 1.27-.838 2.49-1.725 3.712-2.588.12-.072.191-.216.311-.336-.144-.096-.215-.192-.311-.216-1.485-.55-2.682-1.51-3.903-2.492-1.629-1.319-3.233-2.637-4.885-3.907-2.323-1.774-4.693-3.5-7.016-5.273-.886-.672-1.844-1.055-2.897-1.343-.647-.168-1.317-.287-1.94-.503a8.586 8.586 0 0 1-1.724-.767c-1.46-.911-1.485-2.613-.096-3.596.886-.623 1.892-1.006 2.921-1.342 4.215-1.342 8.501-2.397 12.835-3.308 3.209-.695 6.417-1.438 9.626-2.157.168-.048.335-.096.503-.12.215-.048.287-.167.287-.36.048-.766.072-1.533.12-2.3.024-.264-.12-.384-.335-.48-1.15-.527-.91-.599-.79-1.701.023-.12.047-.216.047-.336.096-.767.192-.863.934-1.007.383-.072.767-.12 1.126-.143 1.987-.048 3.975.071 5.962.287 2.083.24 4.167.48 6.274.72.575.071.598.071.694-.528.216-1.39.431-2.805.647-4.195.072-.48-.024-.815-.383-1.174-1.39-1.39-2.706-2.829-4.095-4.195-2.634-2.565-5.34-5.057-8.309-7.215-1.317-.958-2.682-1.845-4.19-2.492-.072-.024-.144-.096-.24-.144-.048 0-.048-.048-.048-.096Zm-15.9 38.375a.34.34 0 0 0-.047.143c.335.216.67.432.981.672 2.227 1.773 4.478 3.547 6.705 5.32 1.556 1.247 3.113 2.541 4.813 3.62 1.365.863 2.754 1.654 4.31 2.085 1.485.432 2.946.935 4.406 1.463 3.4 1.198 6.777 2.42 10.153 3.595a70.784 70.784 0 0 0 8.548 2.42c.575.12 1.078.073 1.58-.215 1.94-1.055 3.928-2.061 5.867-3.14 5.1-2.852 10.177-5.752 15.373-8.461 1.245-.647 2.37-1.486 3.113-2.733.287-.503.455-1.078.718-1.63.743-1.63 1.485-3.283 2.227-4.913.455-.983.91-1.99 1.365-2.972.072-.192.264-.384.048-.647-.144.047-.263.095-.383.143-3.137 1.247-6.25 2.493-9.387 3.74-4.98 1.965-9.985 3.883-14.965 5.848-2.036.791-4.023 1.702-6.035 2.493-3.663 1.438-7.47 1.702-11.35 1.318-2.73-.287-5.387-.887-8.021-1.654-4.023-1.174-7.926-2.684-11.901-4.05-2.538-.863-5.076-1.726-7.663-2.397-.12 0-.287-.024-.454-.048ZM29.233 64.31c-.048.503-.096.91-.12 1.318a200.16 200.16 0 0 1-.167 3.62c-.096 1.653-.216 3.307-.312 4.985l-.143 2.972-.216 4.051-.144 3.26c-.023.6-.047.6.527.79.814.265 1.628.528 2.467.768 1.532.455 3.065 1.007 4.621 1.342 3.305.743 6.633.72 9.961-.024 2.083-.455 4.07-1.15 6.058-1.893.36-.144.48-.384.551-.72l1.365-5.752c.814-3.38 1.604-6.76 2.395-10.163.047-.144.023-.312.047-.503-4.573-.072-9.05-.6-13.505-1.27-4.477-.672-8.931-1.463-13.385-2.781ZM9.046 108.22c-.048-.024-.096-.024-.12-.047-.095.071-.215.167-.31.239-.552.48-1.078.983-1.605 1.462-1.365 1.223-2.826 2.349-4.047 3.739-1.173 1.319-2.083 2.757-2.323 4.555-.167 1.414.024 2.756.91 3.931.79 1.054 1.844 1.749 3.065 2.253 2.251.934 4.574 1.054 6.92.695 2.658-.384 5.125-1.366 7.471-2.661 2.538-1.366 4.861-3.044 7.208-4.698 1.532-1.054 3.04-2.133 4.573-3.164 2.012-1.342 4.047-2.612 6.082-3.931 2.515-1.63 5.029-3.307 7.543-4.937 1.724-1.127 3.52-2.157 5.196-3.38a15.629 15.629 0 0 1 2.347-1.414c1.006-.503 2.06-.695 3.16-.36.336.096.647.216.863.504.766.982 1.389 2.037 1.58 3.26.264 1.534.455 3.068.67 4.602.192 1.414.503 2.78 1.03 4.098.503 1.247 1.437 2.062 2.778 2.206 1.82.215 3.4-.384 4.693-1.654.479-.48.91-1.031 1.341-1.558.862-1.055 1.556-2.182 2.06-3.428.957-2.301 1.316-4.746 1.58-7.191.191-1.75.383-3.5.598-5.225.096-.743.192-1.51.551-2.23 1.82-3.762 4.095-7.262 6.633-10.594 2.658-3.451 5.412-6.83 8.093-10.258a409.16 409.16 0 0 0 4.885-6.376c1.078-1.414 2.084-2.876 3.185-4.267.934-1.198 1.987-2.277 3.424-2.924.144-.072.264-.144.383-.264.383-.383.264-.982-.263-1.15-.647-.216-1.27-.072-1.82.264-.623.407-1.221.839-1.772 1.342-1.437 1.294-2.658 2.804-3.831 4.362-2.083 2.78-4.143 5.561-6.202 8.318a409.186 409.186 0 0 1-4.645 6.112c-1.772 2.325-3.52 4.674-4.98 7.214a3.18 3.18 0 0 1-.743.863 12.349 12.349 0 0 0-3.233 4.051c-.91 1.87-1.389 3.835-1.652 5.873-.287 2.277-.527 4.554-.814 6.831-.216 1.654-.623 3.26-1.293 4.818-.767 1.749-1.844 3.259-3.4 4.386-.48.336-.982.599-1.557.719-.742.144-1.365-.096-1.82-.719a4.302 4.302 0 0 1-.766-1.726c-.12-.695-.168-1.39-.287-2.085a124.788 124.788 0 0 0-.862-4.267c-.24-1.054-.455-2.109-.79-3.116-.551-1.606-1.653-2.684-3.377-3.02-.599-.12-1.125-.024-1.628.336-.503.36-1.054.695-1.604 1.03-.384.24-.79.408-1.246.36-1.34-.168-2.49.264-3.567.983-.455.311-.91.623-1.39.935-4.381 2.852-8.74 5.728-13.121 8.557-4.382 2.852-8.764 5.68-13.17 8.509-1.03.671-2.035 1.39-3.16 1.845-2.204.887-4.479 1.438-6.85 1.606-1.077.072-2.154 0-3.184-.287-1.748-.504-2.897-1.582-3.137-3.476a.795.795 0 0 1 0-.336c.168-1.174.599-2.253 1.365-3.163.527-.6 1.054-1.223 1.628-1.774 1.317-1.319 2.132-2.924 2.634-4.698.096-.144.096-.312.12-.48Zm9.698-10.81c-.479-.36-.79-.072-1.102.168-.263.216-.526.432-.814.647-.191.144-.335.312-.359.552 0 .287-.144.431-.43.431-.336 0-.576.168-.791.407-.838.983-1.676 1.99-2.514 2.973-.216.263-.336.527-.24.887.096.311-.048.503-.311.479-.383-.048-.503.168-.647.431a26.89 26.89 0 0 0-2.083 4.147c-1.365 3.476-2.131 7.023-1.652 10.762.072.647.168 1.295.263 1.918.072.431.144.503.48.503 1.987.072 3.95-.048 5.842-.671a43.691 43.691 0 0 0 2.466-.959c.48-.192.503-.287.455-.767a16.444 16.444 0 0 1-.12-1.078c-.143-1.87.072-3.716.575-5.513.79-2.949 2.06-5.633 4.286-7.79 1.748-1.702 3.808-2.517 6.274-2.062.766.144 1.485.36 2.155.767.982.6 1.485 1.534 1.82 2.565.287.911.43 1.87.503 2.804.024.216.096.432.143.672.192-.096.312-.144.431-.216.862-.551 1.7-1.103 2.563-1.63.359-.216.479-.479.479-.887-.096-2.589-.575-5.081-1.653-7.454-.79-1.726-2.059-2.972-3.76-3.787-1.46-.72-3.04-1.031-4.645-1.103-2.49-.096-4.813.551-6.944 1.822-.167.096-.287.335-.43.503-.096.12-.144.264-.24.48Zm32.398-34.3c0 .072-.024.12-.024.192.215.048.43.12.646.168 1.58.407 3.185.815 4.765 1.246.503.144.958.384 1.413.6.383.191.623.479.48.982-.097.36-.12.743-.168 1.127-.048.383-.264.575-.6.695a1.119 1.119 0 0 1-.382.096c-.527-.024-.647.311-.767.743-.454 2.013-.957 4.027-1.412 6.016-.743 3.164-1.485 6.328-2.251 9.492-.048.168-.168.36.048.551.167-.072.383-.12.575-.216 1.7-.718 3.352-1.462 5.076-2.133 5.004-1.99 10.033-3.907 15.061-5.896 2.754-1.079 5.508-2.205 8.238-3.308a4.628 4.628 0 0 0 1.58-1.03c.55-.552.527-1.007-.048-1.51-.527-.456-1.15-.744-1.82-.935a135.993 135.993 0 0 0-4.19-1.15 306.857 306.857 0 0 0-4.502-1.103c-1.077-.264-2.179-.456-3.256-.72-3.017-.743-6.035-1.534-9.052-2.277-2.61-.647-5.244-1.198-7.95-1.486-.478-.072-.981-.12-1.46-.144ZM27.628 84.947c.023-.383.023-.67.047-.958.096-1.654.216-3.308.312-4.986.048-.983.096-1.942.143-2.924l.216-4.123.144-3.26c0-.24.071-.455.071-.67 0-.384-.095-.456-.454-.384-.312.072-.623.167-.934.24-4.598 1.15-9.267 2.06-13.913 2.971-2.442.48-4.86 1.08-7.16 2.038a16.03 16.03 0 0 0-3.735 2.133c-.502.384-.598.743-.335 1.294.096.192.24.408.431.528.431.263.886.551 1.365.719.647.24 1.317.407 1.964.6 6.728 2.084 13.433 4.17 20.161 6.255.503.192 1.03.336 1.677.527ZM55.548 97.7c.215.12.311.192.43.216 1.366.407 2.3 1.318 2.97 2.54.766 1.391 1.125 2.877 1.413 4.411.335 1.989.622 4.003.934 5.992.047.336.167.671.31.983.264.527.695.839 1.294.767.36-.048.718-.096 1.053-.264 1.15-.527 2.084-1.366 2.778-2.421.982-1.462 1.58-3.092 1.964-4.818.526-2.325.67-4.698.886-7.047.167-1.821.359-3.643.838-5.44.12-.456.12-.48-.312-.72a2.296 2.296 0 0 1-1.03-1.102c-.239-.504-.239-.48-.718-.24-.071.024-.143.072-.215.096L56.29 97.196c-.24.167-.455.311-.742.503Zm-46.07 28.188c.119.287.215.503.31.719.455.887 1.174 1.558 1.892 2.229 1.772 1.654 3.855 2.517 6.274 2.541 2.25.048 4.334-.624 6.297-1.678 2.036-1.079 3.784-2.517 5.388-4.147 2.275-2.325 4.07-4.961 5.316-7.982a17.666 17.666 0 0 0 1.34-5.56c0-.096-.071-.192-.119-.336-.862.575-1.676 1.151-2.538 1.654-.742.431-1.221.959-1.245 1.822a.447.447 0 0 1-.048.167c-.934 3.044-2.562 5.681-4.957 7.79-1.628 1.438-3.496 2.277-5.723 1.942-1.173-.168-2.299-.48-3.065-1.486-.167-.216-.335-.192-.55-.072-.647.311-1.27.623-1.94.887-1.892.767-3.855 1.246-5.89 1.366-.216.024-.432.096-.743.144ZM39.6 4.003c.096.216.144.384.216.528 1.34 2.18 2.49 4.434 3.544 6.759 1.772 3.979 3.16 8.078 4.046 12.368.024.168.024.384.312.503.263-.359.574-.742.814-1.126 2.37-3.715 2.682-7.574.718-11.553-.934-1.894-2.203-3.596-3.807-4.986-1.509-1.342-3.233-2.229-5.268-2.445-.144-.072-.311-.048-.575-.048Zm4 42.138c.048-.024.12-.048.168-.096-.384-3.26-1.341-6.352-2.778-9.324a28.121 28.121 0 0 0-6.68-8.82c-.144.311-.264.527-.36.767a12.083 12.083 0 0 0-.622 4.242c.047 1.39.359 2.733 1.03 3.955 1.005 1.894 2.513 3.404 4.094 4.818 1.34 1.198 2.73 2.325 4.094 3.5.36.335.695.647 1.054.958Zm22.58-25.527c-.287-.072-.478-.144-.67-.192-2.466-.527-4.909-.455-7.303.264-2.18.647-4.143 1.678-5.747 3.308-1.389 1.39-2.107 3.044-1.844 5.033.072.575.168.671.718.456 2.37-.911 4.742-1.846 7.112-2.757 1.58-.623 3.113-1.342 4.526-2.325 1.15-.815 2.179-1.75 2.897-2.972.12-.288.192-.527.311-.815ZM39.025 4.1c-.143.144-.215.192-.263.24-.55.623-.79 1.39-.934 2.181-.287 1.534-.191 3.068.144 4.554 1.03 4.507 3.137 8.414 6.56 11.554.6.55 1.27 1.03 1.94 1.534.144.12.312.287.6.143-.983-5.153-2.73-10.019-4.958-14.74-.91-1.846-1.891-3.668-3.088-5.466ZM64.335.576c-.023-.048-.071-.12-.095-.168-.216 0-.455-.048-.67-.024-.719.12-1.437.216-2.132.408-1.772.503-3.256 1.462-4.573 2.732-1.317 1.294-2.347 2.756-3.017 4.482-.91 2.325-1.27 4.746-1.39 7.215-.047 1.103-.023 2.23 0 3.332 0 .168-.071.383.24.551C56.314 12.8 60.288 6.664 64.336.576ZM34.932 27.78c.862.935 1.7 1.75 2.442 2.637.743.886 1.461 1.821 2.084 2.804.646.983 1.22 1.99 1.748 3.02.526 1.03.981 2.11 1.388 3.212.407 1.102.719 2.229 1.006 3.355.287 1.103.479 2.254.718 3.38.048 0 .072.024.12.024.12-.192.288-.383.383-.6.36-.862.743-1.725 1.03-2.612.599-1.725.718-3.547.479-5.32-.407-3.021-1.892-5.514-4.19-7.503-1.868-1.606-4.071-2.397-6.514-2.445-.215-.024-.407.024-.694.048Zm-15.445 90.795a3.923 3.923 0 0 1-.958-2.421 25.042 25.042 0 0 1-.095-1.893c.024-1.87.55-3.596 1.652-5.106.886-1.246 2.06-2.109 3.568-2.421a3.04 3.04 0 0 1 3.184 1.319c.743 1.174.91 2.492.814 3.859-.023.407-.047.815-.071 1.294.191-.096.311-.12.407-.168.958-.599 1.891-1.222 2.85-1.821.239-.144.31-.36.31-.624-.047-.671-.047-1.342-.167-1.989-.096-.623-.24-1.246-.479-1.822-.36-.958-1.006-1.702-2.011-2.085-.096-.048-.216-.096-.288-.192-.048-.048-.072-.168-.048-.192a.296.296 0 0 1 .24-.119c.12 0 .215.072.311.119 1.126.456 1.82 1.295 2.227 2.397.335.911.479 1.846.575 2.805.024.168-.072.359.215.455.048-.12.144-.263.168-.407a6.843 6.843 0 0 0 .215-2.205c-.095-1.391-.67-2.493-1.867-3.26-1.078-.671-2.275-.767-3.496-.623-2.347.287-4.167 1.534-5.675 3.259-1.294 1.486-2.108 3.212-2.634 5.106-.647 2.325-.67 4.674-.575 7.047 0 .168.096.311.168.575.502-.288.933-.575 1.46-.887Zm7.519-5.585c.048-.191.144-.335.144-.503.024-.791.048-1.558 0-2.349-.024-.384-.168-.791-.336-1.151-.383-.815-.981-1.414-1.891-1.629-1.006-.24-1.988-.072-2.874.455-1.82 1.079-2.897 2.708-3.184 4.794-.168 1.126-.12 2.277-.096 3.427 0 .48.143.983.311 1.439.192.551.623.695 1.174.527a4.47 4.47 0 0 0 .766-.36c1.03-.695 2.035-1.414 3.065-2.109.12-.072.215-.144.335-.216a1.617 1.617 0 0 0-.623-.407c-.31-.144-.646-.264-.957-.384-.264-.096-.431-.311-.527-.575-.312-.839.335-1.941 1.245-2.013a2.63 2.63 0 0 1 .958.12c.838.287 1.604.599 2.49.934Zm18.989-80.896c.095-.263.215-.455.215-.67.024-.768.072-1.535-.048-2.278-.167-1.222-.742-2.325-1.413-3.356-.862-1.294-1.891-2.445-3.04-3.5-2.252-2.084-4.838-3.595-7.735-4.601-.12-.048-.24-.024-.503-.072.144.24.216.383.336.503a38.828 38.828 0 0 1 3.376 4.267c.598.863 1.125 1.773 1.772 2.612 1.963 2.517 4.31 4.698 6.633 6.88.095.096.239.12.407.215Zm-4.24 21.886c.072-.192.144-.288.168-.407.215-.96.311-1.894.24-2.9-.12-1.463-.695-2.685-1.677-3.74-.838-.91-1.844-1.606-2.969-2.133-1.365-.647-2.778-1.199-4.143-1.846-1.676-.79-3.424-1.078-5.244-1.054-.143 0-.359-.072-.454.191 5.315 3.164 9.673 7.479 14.08 11.89ZM18.96 123.082c.91.983 1.964 1.486 3.233 1.534 1.102.048 2.107-.263 3.089-.767 1.173-.623 2.131-1.462 3.041-2.421 1.676-1.773 2.921-3.835 3.568-6.208.048-.167.048-.359.072-.527-.048-.024-.072-.048-.12-.072-.144.096-.335.168-.455.288-.263.287-.55.599-.742.935-.264.455-.503.934-.719 1.438-.838 1.869-2.227 3.284-3.807 4.506-.934.719-1.963 1.27-3.137 1.462-.479.072-.982.072-1.484.096-.168 0-.312-.072-.216-.336.168-.024.36-.048.527-.048.91.024 1.796-.215 2.586-.623 2.634-1.366 4.43-3.523 5.675-6.184.024-.072.024-.168.048-.311-.144.048-.24.048-.311.096-3.592 2.396-7.184 4.745-10.848 7.142Zm38.96-56.639c-.168 0-.264-.024-.336-.024-1.389.264-2.778.168-4.166.072-2.371-.192-4.766-.407-7.136-.695-4.214-.527-8.405-1.223-12.547-2.157-1.796-.408-3.592-.767-5.268-1.582-.096-.048-.24-.024-.384-.024-.047.215-.095.36-.12.527-.095.623-.047.743.528.959a26.63 26.63 0 0 0 1.796.6c2.226.67 4.477 1.15 6.752 1.557 2.466.432 4.933.863 7.4 1.199 2.082.287 4.166.503 6.249.719 2.06.215 4.142.36 6.226.215.742-.047.838-.143.934-.862.047-.12.071-.288.071-.504ZM42.952 97.987c-.192-.096-.312-.168-.431-.216-2.227-.743-4.454-1.51-6.681-2.253a3.58 3.58 0 0 0-.575-.096c.024.24.024.383.072.527.36 1.678.694 3.356 1.101 5.034.168.671.455 1.342.743 1.965.215.48.622.671 1.15.695 1.029.024 1.795-.455 2.394-1.222 1.101-1.27 1.604-2.852 2.227-4.434Zm-14.75-36.53c.215.12.358.216.502.288.647.24 1.293.48 1.94.671 2.562.743 5.148 1.247 7.758 1.726 1.053.192 2.107.36 3.16.551.551.096.6.048.671-.479.048-.503.12-.983.168-1.486.048-.384 0-.456-.383-.527-.383-.072-.743-.12-1.126-.168-2.227-.24-4.43-.48-6.657-.695-1.628-.168-3.232-.192-4.86-.144-.36 0-.743-.048-1.174.264Zm29.667 4.459c-.095-.312-.31-.36-.478-.432-.527-.191-1.078-.407-1.629-.55-2.873-.864-5.842-1.415-8.788-1.966a60.11 60.11 0 0 0-2.035-.336c-.55-.096-.599-.048-.67.48-.048.503-.096 1.03-.168 1.533-.048.24.048.36.263.408.12.024.216.048.335.072 1.365.168 2.73.36 4.095.503 1.437.144 2.898.264 4.334.36 1.365.072 2.706.048 4.07.072.216 0 .432-.096.671-.144Zm-2.226-2.9c.095.095.167.167.239.191.694.264 1.34.168 1.772-.67.982-1.966 1.987-3.932 2.945-5.897.742-1.51 1.58-2.925 3.065-3.86a.78.78 0 0 0 .288-.383c.095-.335-.144-.767-.456-.983-.287-.191-.502-.167-.885.12-.863.671-1.557 1.462-2.18 2.35-1.03 1.485-1.676 3.187-2.49 4.77-.646 1.27-1.317 2.492-1.963 3.762-.096.216-.216.408-.335.6ZM7.538 121.668c-.024-.335-.048-.575-.072-.815-.096-.671-.216-1.366-.264-2.037-.095-1.75-.12-3.524.264-5.249.024-.096-.024-.192-.048-.36-.144.072-.216.096-.288.168a11.378 11.378 0 0 0-2.202 2.469c-.432.671-.79 1.414-.934 2.205-.168.815-.168 1.63.383 2.301.766.959 1.867 1.222 3.16 1.318Zm29.021-18.36c-.048.024-.072.048-.12.072.048.695.144 1.39.503 2.013.288.503.719.767 1.293.623.48-.12.982-.239 1.39-.503 1.005-.647 1.987-1.366 2.944-2.085.216-.144.383-.384.527-.6.431-.743.838-1.51 1.245-2.253.24-.479.431-.983.647-1.462.144-.36.096-.455-.264-.623-.67-.288-1.173-.144-1.58.48a5.063 5.063 0 0 0-.263.503c-.288.719-.551 1.438-.862 2.133-.575 1.342-1.605 2.157-2.97 2.565-.886.263-1.652.024-2.25-.695-.072-.096-.168-.12-.24-.168Zm63.862-44.391c.144-.048.287-.072.407-.12.838-.36 1.676-.72 2.514-1.103.216-.096.431-.24.647-.36.263-.143.359-.383.311-.694a2.982 2.982 0 0 0-.143-.623c-.096-.312-.312-.48-.647-.432-.287.048-.623.072-.886.192-.67.312-1.341.671-1.987 1.007-.288.143-.575.287-.838.431.215.6.407 1.15.622 1.702Zm-76.41 53.379c-.813-.024-1.196.288-1.34.839-.192.719-.144.839.527 1.151.455.215.957.407 1.436.575.12.048.288.072.384.024.574-.336 1.149-.671 1.676-1.079.311-.215.24-.431-.096-.599a11.726 11.726 0 0 0-1.365-.599c-.479-.144-.958-.24-1.221-.312Zm11.423-12.751c.048-.024.072-.024.12-.048a6.938 6.938 0 0 0-.096-.695c-.168-.911-.24-1.846-.623-2.733a2.952 2.952 0 0 0-1.006-1.222c-.359-.24-.766-.456-1.317-.336.144.815.096 1.606.79 2.181.815.647 1.365 1.51 1.868 2.445.048.144.168.264.264.408Zm8.596 2.828c.024.048.072.072.096.12.503-.216.91-.575 1.365-.863.479-.288.934-.599 1.389-.911.454-.312.933-.527 1.34-.935-.454-.36-1.269-.623-1.795-.67-.551-.049-.982.167-1.222.67-.407.863-.79 1.726-1.173 2.589Zm20.88-50.575c.264-.192.503-.407.767-.575.43-.288.885-.528 1.316-.815.503-.36.551-.743.144-1.223-.263-.311-.575-.407-1.03-.24-.814.312-1.412.935-2.035 1.439.288.503.551.935.838 1.414Zm-37.522 42.33c.91.215 1.7.36 2.466.623.743.24 1.461.599 2.203.887.144-.791-.239-1.439-.957-1.726-.67-.24-1.341-.456-2.012-.671-.263-.072-.55-.096-.766.096-.287.215-.55.455-.934.79Zm-3.496-.024c.168.047.24.12.288.096.67-.049 1.34-.096 1.987-.192.694-.096 1.317-.384 1.724-1.079-.575-.335-1.125-.575-1.772-.647-.192-.024-.431.072-.575.216-.526.503-1.053 1.03-1.652 1.606Zm19.66-63.47c-.025.023-.049.047-.049.071.575.863 1.221 1.678 1.748 2.565.527.91.91 1.893 1.365 2.9.048-.096.12-.168.12-.216.072-.599.144-1.198.215-1.821.048-.336-.095-.576-.335-.791a242.68 242.68 0 0 1-2.538-2.301c-.192-.144-.36-.264-.527-.408Zm28.47 59.131c-.766-.527-1.652-.503-2.179 0-.36.336-.455.815-.144 1.175.24.287.575.503.886.695.216.144.383.048.503-.192.312-.551.623-1.103.934-1.678Zm-26.938-43.48c-.767.671-.934 1.63-.407 2.493a15.89 15.89 0 0 0 .407-2.493ZM72.98 88.183c-.503.144-.958.336-1.341.72.575.43.982.239 1.34-.72Zm-35.295 18.48c-.431-.191-.6-.215-.67-.071-.12.167-.073.335.167.455.12-.096.287-.216.503-.384Z" fill="#fff"/><path d="M45.084 54.65c.12-.767.24-1.534.383-2.325.598-3.331 1.173-6.663 1.82-9.995.479-2.493.718-5.01.934-7.526.047-.48.287-2.493.31-2.972.025-.288.12-.432.48-.384-.024 1.103-.431 3.74-.48 4.866.288-.048.264-.288.336-.432.311-.599.575-1.246.958-1.821.79-1.199 1.987-1.942 3.352-2.23 2.083-.43 3.88-1.39 5.532-2.66 1.245-.959 2.514-1.893 3.926-2.589a11.362 11.362 0 0 1 3.856-1.03c1.173-.12 2.322.072 3.567.215-.143.24-.215.408-.359.552-.574.67-1.125 1.366-1.724 1.99-3.28 3.499-7.016 6.447-11.254 8.724a36.001 36.001 0 0 1-7.638 3.116c-.192.048-.408.144-.6.216-.454.167-.622.503-.694.958-.31 1.942-.67 3.883-1.005 5.825-.312 1.702-.623 3.38-.91 5.081-.024.12 0 .264.024.456.143-.096.24-.144.311-.216.263-.264.503-.575.79-.839.216-.192.24-.383.216-.671-.192-2.181.215-4.195 1.652-5.92.55-.672 1.245-1.175 2.011-1.606 1.078-.6 2.203-1.055 3.425-1.319 1.748-.383 3.496-.838 5.268-1.126 1.915-.312 3.759.048 5.579.695.048.024.096.072.167.12-.12.096-.215.168-.335.24a672.96 672.96 0 0 0-7.016 4.122c-1.437.863-2.825 1.822-4.262 2.709-1.27.815-2.562 1.606-3.975 2.18-.575.24-1.197.432-1.796.576a1.528 1.528 0 0 0-.694.384 11.082 11.082 0 0 0-1.916 2.42c-.048.073-.096.144-.144.24-.023 0-.047 0-.095-.024Zm24.065-28.475c-.216-.048-.431-.12-.647-.12a23.01 23.01 0 0 0-1.82 0c-1.556.048-3.04.431-4.358 1.247a50.058 50.058 0 0 0-3.496 2.396c-1.628 1.175-3.352 2.134-5.34 2.565-2.155.456-3.52 1.822-4.214 3.883-.36 1.007-.36 2.061-.455 3.116-.024.144.096.312.168.527 4.908-1.366 9.267-3.69 13.265-6.735 2.515-1.99 6.514-5.896 6.897-6.88Zm-4.861 15.772c-.264-.12-.383-.192-.503-.216-1.604-.384-3.209-.503-4.837-.192-1.509.288-2.993.647-4.478 1.007-1.077.264-2.13.6-3.113 1.126-1.772.935-3.017 2.325-3.496 4.315-.215.935-.167 1.893-.167 2.852 0 .312.12.408.43.336.504-.144 1.03-.288 1.51-.504 1.508-.647 2.897-1.534 4.285-2.42 1.341-.84 2.658-1.726 4.023-2.565 1.892-1.15 3.831-2.23 5.747-3.356.192-.096.335-.216.599-.383ZM48.1 39.909c.072 0 .12.024.191.024v-.407c-.024 0-.072 0-.096-.024-.047.144-.071.287-.095.407ZM27.795 96.908c.216-.192.36-.168.48.048.095.192.167.383.286.551.096.12.24.264.384.264.071 0 .215-.192.263-.312a8.52 8.52 0 0 0 .287-.79c.12.239.216.359.216.479.024.503.359.623.766.647.192.024.383.096.575.144-.072.36-.311.335-.503.311-.383-.024-.766-.096-1.15-.048-.694.144-1.412.072-2.059.288-.574.192-1.197.36-1.748.6-.479.215-.91.479-1.365.718-.024.024-.072.024-.095.072-.503.48-1.03.959-1.509 1.462-.144.144-.263.24-.431.12a1.337 1.337 0 0 1-.646-.911c-.024-.096.071-.191.167-.359.192.168.36.287.479.431.192.192.36.168.55 0 .288-.239.36-.551.24-.935-.072-.215-.191-.407-.287-.623.24-.191.407-.096.55.072.527.647.647.456 1.365.048.216-.12.264-.288.168-.527-.096-.24-.168-.48-.311-.863.215.072.359.072.43.144.097.096.145.263.24.383.192.24.48.336.719.216.287-.12.31-.36.263-.623-.024-.168-.072-.312-.096-.48.335-.168.407.048.48.24.215.48.813.623 1.196.264.192-.168.264-.36.192-.624 0-.12-.048-.263-.096-.407Zm-7.088 6.304c-.502-.48-.934-.887-1.34-1.271.143-.287.359-.383.526-.215.335.335.599.719.886 1.078.048.048 0 .168-.072.408Zm-2.298-.12c.167.048.359.048.479.168.263.239.478.527.694.815.048.048 0 .192-.024.239-.024.048-.144.072-.192.048-.407-.048-.981-.695-1.03-1.102-.023-.024.025-.072.073-.168Zm24.017-39.477c-.096-.024-9.315-1.798-11.71-.815l-.191-.456c2.538-1.03 11.59.72 11.973.791l-.072.48Zm12.212 2.805c-2.85-1.559-10.56-2.781-10.632-2.781l.072-.48c.311.048 7.878 1.247 10.775 2.853l-.215.407Zm9.219 14.548c-.862-.479-7.639-1.39-10.177-1.701l.048-.48c.934.12 9.267 1.15 10.368 1.75l-.24.431Zm-44.395 1.678-.167-.455c.263-.096 6.489-2.325 8.86-2.062l-.049.48c-2.25-.24-8.572 2.013-8.644 2.037Z" fill="#fff"/></svg>